<svg width="164" height="40" viewBox="0 0 164 40" fill="none" xmlns="http://www.w3.org/2000/svg">
<path d="M148.032 27.3213C147.816 27.3433 147.598 27.3584 147.387 27.3914C147.249 27.412 147.19 27.3515 147.099 27.32C147.068 27.309 147.036 27.287 147.007 27.2897C146.794 27.3117 146.58 27.3364 146.366 27.3612C146.301 27.4147 146.26 27.4861 146.159 27.5122C146.061 27.5369 145.946 27.5369 145.837 27.5493C145.693 27.5644 145.549 27.5795 145.405 27.5933C145.333 27.6001 145.274 27.6262 145.25 27.6757C145.246 27.6839 145.294 27.7045 145.32 27.7169C145.407 27.7581 145.492 27.8048 145.588 27.8363C145.68 27.8666 145.793 27.8171 145.891 27.8556C146.111 27.9421 146.114 27.9407 146.281 27.9242C146.425 27.9091 146.569 27.8927 146.713 27.8817C146.741 27.8789 146.774 27.8995 146.805 27.9105C146.896 27.9407 146.955 28.0094 147.09 27.9833C147.193 27.9627 147.306 27.9586 147.413 27.9476C147.502 27.9874 147.585 28.0327 147.681 28.0643C147.77 28.0945 147.796 28.1179 147.748 28.1577C147.705 28.1948 147.644 28.2099 147.563 28.2127C147.491 28.214 147.419 28.2264 147.347 28.2332C147.31 28.2374 147.275 28.2401 147.241 28.2442C147.103 28.2594 147.103 28.2593 146.853 28.1715C146.754 28.1371 146.643 28.1852 146.55 28.1522C146.486 28.1302 146.432 28.0973 146.371 28.0739C146.345 28.0643 146.303 28.063 146.271 28.0657C146.162 28.0753 146.053 28.0822 145.948 28.1C145.874 28.1124 145.83 28.1509 145.839 28.1893C145.841 28.2044 145.893 28.2264 145.924 28.2278C145.994 28.2305 146.068 28.2113 146.135 28.2209C146.201 28.2305 146.268 28.258 146.316 28.2882C146.414 28.3514 146.526 28.2951 146.619 28.3115C146.717 28.3294 146.798 28.3843 146.892 28.4173C146.916 28.4255 146.962 28.4118 146.999 28.4077C147.105 28.3981 147.212 28.3898 147.319 28.3802C147.408 28.42 147.504 28.4557 147.585 28.5011C147.731 28.5835 147.888 28.615 148.078 28.5752C148.184 28.5532 148.289 28.5615 148.374 28.6151C148.461 28.67 148.561 28.6645 148.673 28.6535C148.775 28.6425 148.88 28.6123 148.984 28.6508C149.211 28.7359 149.213 28.74 149.481 28.7071C149.562 28.6975 149.623 28.6947 149.684 28.7263C149.741 28.7551 149.802 28.7799 149.861 28.8073C149.967 28.7977 150.076 28.7881 150.183 28.7771C150.321 28.762 150.397 28.7812 150.429 28.8581C150.449 28.9048 150.458 28.9474 150.506 28.979C150.562 29.0175 150.623 29.0161 150.706 29.0051C150.785 28.9955 150.841 28.9804 150.874 28.9309C150.887 28.9103 150.913 28.8911 150.937 28.8746C150.957 28.8623 150.988 28.843 151.005 28.8458C151.038 28.8513 151.081 28.8664 151.092 28.8842C151.199 29.0504 151.199 29.0518 151.308 29.0999C151.428 29.1534 151.552 29.2015 151.661 29.2619C151.759 29.3155 151.857 29.2921 151.964 29.2921C152.045 29.2921 152.097 29.3279 152.09 29.3636C152.086 29.3842 152.056 29.4144 152.029 29.4171C151.816 29.4446 151.6 29.4679 151.384 29.4872C151.358 29.4899 151.325 29.4652 151.295 29.4528C151.234 29.4281 151.179 29.3896 151.114 29.3814C151.049 29.3732 150.972 29.3938 150.9 29.4006C150.828 29.4075 150.752 29.4254 150.687 29.4144C150.621 29.4034 150.569 29.3636 150.508 29.3375C150.48 29.3251 150.44 29.3072 150.416 29.3114C150.257 29.3443 150.14 29.299 150.026 29.2386C150.002 29.2262 149.961 29.218 149.93 29.2207C149.678 29.2441 149.427 29.2715 149.174 29.2976C149.072 29.3086 148.989 29.2605 148.967 29.1795C148.956 29.1342 148.934 29.0889 148.934 29.0435C148.934 28.9611 148.814 28.9158 148.727 28.9254C148.583 28.9392 148.437 28.9502 148.296 28.9708C148.18 28.9872 148.082 28.9708 148.003 28.9213C147.912 28.865 147.807 28.876 147.703 28.8911C147.624 28.9021 147.602 28.9474 147.607 29.0614C147.611 29.1534 147.574 29.1823 147.432 29.1974C147.254 29.2166 147.073 29.2358 146.892 29.2509C146.863 29.2537 146.831 29.2303 146.802 29.218C146.741 29.1933 146.687 29.1534 146.621 29.1452C146.556 29.1356 146.48 29.1562 146.408 29.1644C146.336 29.1713 146.26 29.1905 146.194 29.1809C146.129 29.1713 146.074 29.1301 146.015 29.104C145.987 29.0916 145.952 29.0738 145.924 29.0765C145.78 29.0875 145.636 29.104 145.492 29.1191C145.331 29.1356 145.331 29.1356 145.102 29.0504C144.998 29.012 144.893 29.0422 144.79 29.0532C144.681 29.0642 144.579 29.0696 144.494 29.0147C144.437 28.979 144.374 28.957 144.307 28.9639C144.126 28.9804 143.947 29.001 143.766 29.0175C143.735 29.0202 143.694 29.0133 143.67 29.001C143.555 28.9433 143.441 28.898 143.28 28.9268C143.14 28.9515 142.99 28.9529 142.851 28.9763C142.774 28.9886 142.739 29.0326 142.755 29.0669C142.763 29.0848 142.809 29.1054 142.84 29.1054C142.909 29.1067 142.986 29.0861 143.051 29.0944C143.186 29.1108 143.254 29.2262 143.43 29.1946C143.535 29.1754 143.644 29.1685 143.753 29.163C143.781 29.1617 143.812 29.1878 143.842 29.2015C143.929 29.2386 144.006 29.2866 144.132 29.2619C144.237 29.2427 144.348 29.2372 144.455 29.2262C144.625 29.2084 144.625 29.2097 144.845 29.2935C144.95 29.3333 145.054 29.3018 145.157 29.2921C145.233 29.2853 145.305 29.2715 145.366 29.2908C145.46 29.3196 145.527 29.3855 145.643 29.3814C145.752 29.3773 145.859 29.3581 145.968 29.3512C146.035 29.3471 146.098 29.369 146.153 29.4061C146.21 29.4432 146.271 29.4597 146.345 29.4514C146.451 29.4405 146.56 29.4267 146.669 29.4199C146.7 29.4185 146.735 29.4308 146.763 29.4418C146.824 29.4666 146.883 29.4954 146.942 29.5215C147.049 29.5132 147.158 29.5105 147.262 29.494C147.343 29.4817 147.4 29.4872 147.465 29.5146C147.548 29.5517 147.615 29.6176 147.751 29.586C147.818 29.5709 147.897 29.5751 147.964 29.5613C148.047 29.5435 148.104 29.5503 148.163 29.5915C148.274 29.6698 148.413 29.6712 148.557 29.641C148.714 29.608 148.832 29.6465 148.949 29.7069C149.074 29.7701 149.074 29.7687 149.17 29.9211C149.198 29.9651 149.279 29.9857 149.346 29.9775C149.46 29.9637 149.558 29.9706 149.64 30.0228C149.728 30.0791 149.832 30.0722 149.939 30.0571C150.081 30.0365 150.222 30.0187 150.338 30.0983C150.395 30.1368 150.456 30.1464 150.532 30.1368C150.748 30.112 150.966 30.0969 151.177 30.0667C151.306 30.0475 151.38 30.0914 151.467 30.1285C151.585 30.1793 151.713 30.2247 151.713 30.3332C151.713 30.351 151.744 30.3716 151.77 30.3853C151.827 30.4142 151.888 30.4389 151.947 30.4664C152.034 30.5076 152.119 30.5419 152.239 30.5199C152.343 30.5021 152.454 30.4966 152.561 30.4842C152.668 30.4719 152.766 30.465 152.862 30.5172C152.973 30.5762 153.091 30.6326 153.217 30.6765C153.307 30.7081 153.425 30.6545 153.52 30.6971C153.579 30.7232 153.636 30.7534 153.699 30.7754C153.725 30.785 153.767 30.7781 153.802 30.7754C153.874 30.7699 153.948 30.7658 154.017 30.7521C154.098 30.7369 154.159 30.7397 154.22 30.7713C154.277 30.8001 154.333 30.8399 154.399 30.8482C154.497 30.8605 154.606 30.8056 154.704 30.8688C154.754 30.9004 154.817 30.9306 154.883 30.9402C154.948 30.9498 155.024 30.9292 155.094 30.9306C155.125 30.9306 155.162 30.9526 155.179 30.9704C155.19 30.98 155.175 31.0061 155.16 31.0199C155.14 31.0363 155.112 31.0583 155.083 31.0611C154.867 31.0858 154.652 31.1064 154.436 31.1297C154.307 31.1435 154.307 31.1435 154.048 31.0569C153.987 31.0363 153.919 31.0404 153.843 31.0501C153.741 31.0624 153.636 31.0858 153.529 31.0611C153.39 30.9677 153.217 30.9594 153.034 30.9951C152.958 31.0102 152.888 31.0102 152.832 30.9841C152.712 30.932 152.585 30.8839 152.479 30.8221C152.396 30.774 152.356 30.7699 152.322 30.8358C152.311 30.8564 152.3 30.8784 152.302 30.8976C152.315 30.9663 152.339 31.0336 152.352 31.1023C152.356 31.1215 152.339 31.1435 152.328 31.1641C152.293 31.2217 152.247 31.2176 152.171 31.1695C152.095 31.1215 152.003 31.0899 151.881 31.1119C151.777 31.1311 151.663 31.1284 151.559 31.149C151.397 31.1792 151.284 31.1352 151.168 31.0762C151.144 31.0638 151.103 31.0569 151.073 31.0597C150.748 31.0913 150.425 31.127 150.1 31.1586C150.031 31.1654 149.967 31.1448 149.913 31.1078C149.856 31.0707 149.793 31.0514 149.723 31.0583C149.436 31.0872 149.148 31.1133 148.86 31.149C148.742 31.1641 148.649 31.1462 148.568 31.0981C148.507 31.0624 148.45 31.0514 148.374 31.0556C148.291 31.0597 148.232 31.0734 148.191 31.1133C148.152 31.1517 148.18 31.175 148.267 31.2053C148.361 31.2382 148.448 31.2808 148.537 31.3193C148.609 31.3138 148.681 31.3028 148.751 31.3041C148.782 31.3041 148.81 31.3289 148.84 31.3426C148.928 31.3824 149.008 31.4223 149.133 31.4003C149.237 31.3811 149.348 31.3769 149.455 31.3646C149.603 31.3495 149.603 31.3495 149.843 31.436C149.904 31.458 149.97 31.4566 150.048 31.4442C150.116 31.4346 150.185 31.4538 150.233 31.495C150.253 31.5115 150.246 31.539 150.205 31.6296C150.205 31.6969 150.251 31.6667 150.266 31.6228C150.29 31.5596 150.244 31.539 150.157 31.5733C150.096 31.5981 150.066 31.6338 150.081 31.6626C150.089 31.6777 150.131 31.6969 150.205 31.6296C150.397 31.5472 150.543 31.5376 150.682 31.5156C150.765 31.5033 150.818 31.5088 150.883 31.5445C150.961 31.5871 151.04 31.6324 151.168 31.6104C151.308 31.5857 151.456 31.5829 151.598 31.5623C151.729 31.5431 151.796 31.6035 151.879 31.6393C151.979 31.6818 152.09 31.6338 152.182 31.6585C152.278 31.6832 152.346 31.7436 152.457 31.7546C152.618 31.7175 152.72 31.7862 152.842 31.8315C152.938 31.8659 153.052 31.8356 153.154 31.8205C153.27 31.8041 153.366 31.8192 153.446 31.8686C153.538 31.9249 153.64 31.9126 153.745 31.9002C153.989 31.8727 153.998 31.8686 154.139 31.9441C154.242 31.9991 154.34 31.9744 154.442 31.9675C154.532 32.0046 154.619 32.0444 154.713 32.0774C154.737 32.0856 154.783 32.0719 154.82 32.0677C154.926 32.0568 155.035 32.0458 155.142 32.0348C155.214 32.0279 155.29 32.0073 155.356 32.0156C155.421 32.0252 155.476 32.065 155.535 32.0911C155.593 32.1172 155.654 32.1433 155.711 32.1708C155.798 32.212 155.881 32.2463 156.003 32.2257C156.108 32.2078 156.217 32.2023 156.326 32.19C156.463 32.1749 156.459 32.179 156.714 32.2614C156.851 32.3067 156.993 32.2518 157.132 32.2463C157.202 32.2435 157.27 32.2587 157.318 32.2985C157.337 32.315 157.331 32.3424 157.337 32.3658C156.978 32.4029 156.616 32.4344 156.26 32.4798C156.123 32.4976 156.051 32.4482 155.977 32.407C155.855 32.341 155.694 32.4372 155.578 32.352C155.508 32.3012 155.408 32.2724 155.288 32.2971C155.218 32.3108 155.144 32.3095 155.072 32.3218C154.889 32.352 154.721 32.3534 154.575 32.2586C154.525 32.2257 154.453 32.2078 154.401 32.1763C154.34 32.1419 154.281 32.1227 154.209 32.1295C153.884 32.1625 153.562 32.1955 153.239 32.2312C153.211 32.2339 153.183 32.2545 153.159 32.2696C153.098 32.3081 153.117 32.3383 153.215 32.363C153.248 32.3713 153.274 32.3891 153.305 32.4028C153.363 32.4289 153.418 32.4701 153.483 32.4798C153.549 32.4894 153.625 32.4701 153.697 32.4633C153.769 32.4564 153.845 32.4358 153.911 32.4441C153.976 32.4537 154.03 32.4935 154.091 32.5182C154.12 32.5306 154.155 32.5512 154.183 32.5498C154.327 32.5416 154.469 32.5265 154.612 32.5141C154.702 32.5512 154.778 32.6047 154.885 32.6171C154.953 32.6253 155.024 32.6102 155.094 32.613C155.125 32.6143 155.164 32.635 155.179 32.6528C155.188 32.6638 155.16 32.6913 155.138 32.705C155.055 32.7572 154.942 32.7476 154.839 32.764C154.728 32.7819 154.628 32.7764 154.543 32.7229C154.486 32.6871 154.423 32.6679 154.353 32.6748C154.172 32.6926 153.993 32.7132 153.812 32.7284C153.782 32.7311 153.745 32.7187 153.717 32.7091C153.488 32.6253 153.488 32.6226 153.326 32.6405C153.089 32.6665 153.089 32.6665 152.93 32.5937C152.899 32.58 152.866 32.5539 152.84 32.5553C152.587 32.5773 152.337 32.5992 152.086 32.6308C152.003 32.6404 151.947 32.6405 151.886 32.6047C151.833 32.5745 151.772 32.5402 151.707 32.532C151.639 32.5237 151.565 32.5443 151.493 32.5512C151.421 32.558 151.345 32.5759 151.282 32.5649C151.216 32.5539 151.16 32.5155 151.103 32.488C151.044 32.4592 150.981 32.4605 150.9 32.4715C150.652 32.5031 150.65 32.499 150.403 32.4138C150.375 32.4042 150.338 32.3932 150.307 32.396C150.127 32.4125 149.948 32.4331 149.767 32.4496C149.697 32.4564 149.63 32.4386 149.582 32.3987C149.562 32.3823 149.569 32.3548 149.555 32.3012C149.54 32.2889 149.558 32.3108 149.562 32.3314C149.595 32.3287 149.634 32.3314 149.658 32.3204C149.719 32.2944 149.749 32.26 149.734 32.2312C149.725 32.2161 149.684 32.1968 149.658 32.1968C149.61 32.1968 149.569 32.2271 149.555 32.3012C149.418 32.3465 149.272 32.3562 149.13 32.3781C149.048 32.3919 148.995 32.385 148.93 32.3493C148.851 32.3053 148.771 32.2628 148.642 32.2847C148.503 32.3095 148.354 32.3136 148.211 32.3328C148.045 32.3548 147.973 32.2312 147.833 32.2339C147.69 32.2367 147.546 32.26 147.402 32.2765C147.275 32.2902 147.275 32.2902 147.014 32.201C146.918 32.168 146.805 32.2161 146.711 32.1817C146.648 32.1598 146.593 32.1268 146.532 32.1035C146.506 32.0938 146.465 32.0938 146.432 32.0966C146.251 32.1131 146.068 32.1241 145.893 32.1543C145.695 32.19 145.545 32.1515 145.403 32.0705C145.224 32.0856 145.043 32.0938 144.867 32.1199C144.738 32.1392 144.664 32.0938 144.577 32.0568C144.546 32.0444 144.52 32.0238 144.488 32.0183C144.455 32.0128 144.416 32.0238 144.381 32.0279C144.237 32.043 144.089 32.0499 143.949 32.0746C143.777 32.1062 143.711 31.9936 143.579 31.9798C143.489 32.0471 143.441 32.1392 143.265 32.146C143.121 32.1515 142.977 32.1735 142.833 32.1886C142.761 32.1955 142.689 32.2037 142.617 32.2106C142.502 32.2229 142.447 32.2765 142.471 32.3589C142.484 32.4042 142.495 32.4495 142.506 32.4949C142.528 32.5759 142.473 32.6446 142.382 32.6542C142.129 32.6803 141.878 32.7077 141.625 32.7311C141.558 32.738 141.492 32.7146 141.438 32.6775C141.381 32.6404 141.318 32.624 141.248 32.6308C140.996 32.6569 140.745 32.6844 140.492 32.7077C140.464 32.7105 140.427 32.6968 140.398 32.6858C140.337 32.661 140.278 32.6322 140.22 32.6061C140.076 32.6185 139.934 32.6267 139.792 32.6432C139.563 32.6679 139.563 32.6693 139.396 32.5937C139.365 32.58 139.335 32.5539 139.306 32.5553C139.197 32.5608 139.09 32.5745 138.981 32.5869C138.661 32.6226 138.661 32.6226 138.567 32.5814C138.482 32.5429 138.406 32.4962 138.277 32.5182C138.138 32.5429 137.99 32.5512 137.846 32.5649C137.739 32.5745 137.632 32.5855 137.525 32.5883C137.497 32.5896 137.466 32.5635 137.436 32.5498C137.349 32.5072 137.264 32.4729 137.144 32.4962C137.074 32.51 137 32.5127 136.928 32.5196C136.741 32.5388 136.741 32.5388 136.433 32.4564C136.403 32.4482 136.366 32.4386 136.335 32.4427C136.082 32.4674 135.832 32.4949 135.579 32.5182C135.548 32.521 135.511 32.5127 135.481 32.5058C135.136 32.4262 135.136 32.4262 134.77 32.4647C134.631 32.4784 134.626 32.4839 134.48 32.4111C134.415 32.3795 134.36 32.3644 134.284 32.374C133.996 32.407 133.706 32.429 133.421 32.4674C133.292 32.4839 133.218 32.4427 133.131 32.4056C133.1 32.3932 133.068 32.3658 133.042 32.3672C132.754 32.3932 132.466 32.4248 132.178 32.4509C132.152 32.4537 132.12 32.4262 132.089 32.4138C132.03 32.3891 131.973 32.352 131.908 32.3438C131.841 32.3356 131.766 32.3562 131.692 32.363C131.511 32.3809 131.511 32.3795 131.302 32.2985C131.274 32.2875 131.237 32.2724 131.208 32.2751C130.921 32.3026 130.631 32.3259 130.345 32.3658C130.182 32.3878 130.071 32.3479 129.955 32.2902C129.931 32.2779 129.89 32.2724 129.859 32.2751C129.534 32.3067 129.212 32.3424 128.887 32.374C128.819 32.3809 128.754 32.3575 128.699 32.3218C128.612 32.2655 128.51 32.2724 128.401 32.2847C128.15 32.3136 128.148 32.3122 128 32.2463C127.969 32.2326 127.943 32.2147 127.91 32.2078C127.88 32.201 127.841 32.2051 127.808 32.2078C127.664 32.2216 127.52 32.2367 127.376 32.2518C127.233 32.2669 127.086 32.2751 126.945 32.2985C126.77 32.3273 126.688 32.238 126.565 32.1968C126.387 32.2147 126.204 32.2257 126.027 32.2545C125.892 32.2765 125.829 32.2161 125.739 32.1845C125.709 32.1735 125.676 32.1501 125.648 32.1529C125.323 32.1831 124.998 32.2161 124.676 32.2532C124.597 32.2614 124.545 32.2504 124.479 32.2174C124.333 32.1433 124.327 32.146 124.083 32.1735C123.976 32.1859 123.873 32.1968 123.782 32.1405C123.701 32.0897 123.603 32.0774 123.488 32.0938C123.346 32.1144 123.2 32.1254 123.056 32.1392C122.912 32.1543 122.768 32.1749 122.625 32.1817C122.509 32.1886 122.439 32.1241 122.348 32.0911C122.319 32.0815 122.28 32.0801 122.247 32.0829C122.104 32.0952 121.955 32.1048 121.816 32.1282C121.646 32.157 121.552 32.0815 121.432 32.0375C121.406 32.0279 121.362 32.0334 121.33 32.0375C121.077 32.0623 120.826 32.0897 120.573 32.1158C120.484 32.0787 120.392 32.043 120.303 32.006C120.159 32.0197 120.015 32.0348 119.871 32.0485C119.762 32.0595 119.651 32.0636 119.549 32.0842C119.416 32.1117 119.35 32.0471 119.261 32.0156C119.231 32.0046 119.198 31.9812 119.17 31.984C118.989 31.9991 118.808 32.0156 118.629 32.0389C118.459 32.0623 118.391 31.9386 118.252 31.94C118.108 31.9414 117.96 31.9593 117.82 31.984C117.659 32.0128 117.546 31.9689 117.43 31.9098C117.406 31.8974 117.365 31.8906 117.334 31.8933C117.153 31.9098 116.975 31.9304 116.794 31.9469C116.763 31.9496 116.726 31.9428 116.696 31.9345C116.351 31.8535 116.351 31.8521 116.201 31.8686C116.094 31.8796 115.985 31.8933 115.876 31.9002C115.845 31.9029 115.808 31.8906 115.78 31.8796C115.553 31.7958 115.553 31.7944 115.39 31.8109C115.246 31.826 115.102 31.8411 114.958 31.8562C114.869 31.8192 114.777 31.7835 114.688 31.7464C114.509 31.7642 114.326 31.778 114.15 31.8027C114.067 31.8137 114.012 31.8095 113.949 31.7752C113.871 31.734 113.792 31.6859 113.661 31.7093C113.522 31.734 113.374 31.7368 113.232 31.7574C113.062 31.7821 112.992 31.6571 112.855 31.6585C112.711 31.6599 112.563 31.6777 112.423 31.7024C112.262 31.7313 112.149 31.6873 112.033 31.6283C112.009 31.6159 111.968 31.609 111.937 31.6118C111.54 31.6516 111.146 31.6914 110.749 31.734C110.505 31.7601 110.505 31.7615 110.041 31.6859C110.008 31.6804 109.973 31.675 109.94 31.6777C109.797 31.6901 109.648 31.6997 109.509 31.723C109.339 31.7519 109.245 31.6777 109.125 31.6324C109.099 31.6228 109.058 31.6283 109.023 31.631C108.914 31.6406 108.807 31.653 108.698 31.664C108.554 31.6791 108.41 31.6942 108.266 31.7093C108.177 31.6736 108.086 31.6365 107.996 31.6008C107.817 31.6186 107.634 31.6283 107.458 31.6571C107.323 31.6791 107.259 31.6214 107.17 31.5884C107.139 31.5774 107.107 31.5541 107.078 31.5555C106.754 31.5857 106.429 31.6173 106.106 31.6557C105.973 31.6722 105.912 31.6104 105.823 31.5788C105.792 31.5692 105.758 31.5514 105.729 31.5541C105.513 31.5733 105.298 31.5967 105.082 31.62C104.96 31.6338 104.96 31.6338 104.694 31.5486C104.663 31.539 104.628 31.5294 104.598 31.5321C103.913 31.6008 103.231 31.6736 102.547 31.7423C102.477 31.7491 102.414 31.7285 102.359 31.6914C102.303 31.6544 102.239 31.6351 102.17 31.642C101.882 31.6708 101.592 31.6969 101.306 31.7326C101.189 31.7478 101.095 31.7299 101.014 31.6818C100.953 31.6461 100.897 31.6324 100.82 31.6406C100.677 31.6571 100.533 31.6708 100.389 31.6859C100.245 31.701 100.101 31.7162 99.9572 31.7313C99.8134 31.7464 99.6673 31.7546 99.5256 31.778C99.3512 31.8068 99.2662 31.7217 99.1464 31.6791C98.9306 31.6997 98.7147 31.7203 98.5011 31.7423C98.2134 31.7711 97.9257 31.8027 97.6379 31.8302C97.6118 31.8329 97.5791 31.8082 97.5486 31.7958C97.4592 31.7615 97.3938 31.7134 97.2608 31.7285C96.6156 31.8013 95.9661 31.8631 95.3187 31.9345C95.1835 31.9496 95.1247 31.8906 95.0331 31.859C95.0026 31.8494 94.9677 31.8302 94.9394 31.8329C94.5798 31.8672 94.2201 31.9057 93.8604 31.9428C93.7144 31.9579 93.7144 31.9579 93.4703 31.8727C93.4419 31.8631 93.4048 31.8507 93.3743 31.8535C92.9057 31.9002 92.4392 31.9496 91.9706 31.9977C91.9008 32.0046 91.8376 31.9853 91.7809 31.9483C91.7264 31.9112 91.661 31.8906 91.5935 31.8974C91.1619 31.9414 90.7281 31.984 90.2987 32.032C90.1832 32.0458 90.0872 32.0334 90.0044 31.984C89.9455 31.9483 89.8867 31.9331 89.8126 31.9414C89.1652 32.0087 88.5178 32.0732 87.8704 32.1447C87.7462 32.1584 87.659 32.1323 87.5805 32.087C87.5173 32.0513 87.4628 32.0444 87.3843 32.0499C87.3015 32.0568 87.2514 32.0719 87.2056 32.1131C87.1468 32.1666 87.1097 32.2339 86.9702 32.238C86.8263 32.2422 86.6803 32.2587 86.5386 32.282C86.4035 32.3054 86.3402 32.2435 86.2552 32.2065C86.192 32.1804 86.1332 32.1762 86.0525 32.1886C85.9784 32.1996 85.9326 32.2229 85.889 32.2669C85.7931 32.3603 85.7844 32.3603 85.6667 32.3012C85.6035 32.2696 85.5468 32.2449 85.477 32.2504C85.1893 32.2779 84.9016 32.3081 84.6139 32.3397C84.4482 32.3575 84.4461 32.3603 84.3218 32.2916C84.2608 32.2573 84.2019 32.2408 84.13 32.249C83.3387 32.3314 82.5475 32.4111 81.7562 32.4976C81.6342 32.5114 81.5513 32.4825 81.4641 32.4413C81.4358 32.4276 81.4075 32.4083 81.3748 32.4028C81.3421 32.3974 81.305 32.4028 81.2701 32.4056C80.6947 32.4646 80.117 32.521 79.5437 32.5869C79.413 32.602 79.3432 32.5581 79.2539 32.5223C79.2234 32.51 79.1972 32.4908 79.1645 32.4853C79.1318 32.4811 79.0925 32.4907 79.0577 32.4949C78.4822 32.5539 77.9046 32.6102 77.3313 32.6762C77.194 32.6913 77.1351 32.6336 77.0457 32.6034C77.0152 32.5924 76.9826 32.5718 76.9542 32.5745C76.7733 32.5896 76.5946 32.6102 76.4136 32.6281C75.982 32.6734 75.5504 32.716 75.1188 32.7627C74.9532 32.7805 74.8812 32.6583 74.7417 32.6638C74.5608 32.6707 74.3821 32.6981 74.2011 32.7174C74.0573 32.7325 73.9134 32.7462 73.7696 32.7627C73.6279 32.7778 73.6279 32.7778 73.2748 32.6981C73.2442 32.6913 73.2072 32.6816 73.1767 32.6844C72.6731 32.7352 72.1675 32.786 71.6661 32.841C71.5506 32.8533 71.4547 32.8465 71.3718 32.7956C71.313 32.7599 71.252 32.7421 71.18 32.7503C70.4237 32.8286 69.6694 32.9069 68.9131 32.9838C68.8847 32.9865 68.8477 32.9728 68.8193 32.9618C68.7583 32.9371 68.6994 32.9083 68.6406 32.8822C68.597 32.9138 68.5404 32.9426 68.512 32.9783C68.4728 33.0264 68.4205 33.0401 68.3376 33.0483C68.2548 33.0566 68.2025 33.0538 68.1371 33.0181C68.0586 32.9742 67.978 32.9398 67.8494 32.9536C67.0581 33.0401 66.2668 33.1184 65.4756 33.2035C65.3448 33.2173 65.2838 33.1568 65.1922 33.1252C65.1617 33.1156 65.1268 33.1005 65.0985 33.1033C64.7737 33.1349 64.4511 33.1692 64.1263 33.2022C63.2261 33.2956 62.3259 33.3848 61.4278 33.4837C61.2643 33.5016 61.1531 33.4672 61.0376 33.4082C61.0136 33.3958 60.9722 33.3889 60.9417 33.3917C59.6818 33.5208 58.4219 33.6513 57.1642 33.7817C57.0966 33.7886 57.0312 33.7666 56.9767 33.7309C56.92 33.6938 56.8568 33.676 56.7871 33.6828C56.2116 33.7419 55.6362 33.801 55.0607 33.8614C54.9169 33.8765 54.9147 33.8779 54.7664 33.8119C54.7359 33.7982 54.7033 33.7721 54.6793 33.7749C54.6291 33.7817 54.5812 33.8161 54.5463 33.8628C54.5114 33.9122 54.4569 33.9259 54.3763 33.9355C54.2934 33.9452 54.2389 33.941 54.1757 33.9081C54.0951 33.8669 54.021 33.8271 53.8902 33.8408C52.2357 34.0166 50.5813 34.1855 48.9269 34.3599C48.7939 34.3737 48.7328 34.316 48.6413 34.2844C48.6108 34.2748 48.5803 34.261 48.5476 34.2583C48.5127 34.2555 48.4757 34.2638 48.4408 34.2679C45.7422 34.5467 43.0437 34.8269 40.3452 35.1057C40.1839 35.1222 40.186 35.1222 40.0095 35.2485C39.9877 35.2636 39.9593 35.2842 39.9288 35.287C39.1027 35.3749 38.2744 35.46 37.4461 35.5452C37.0864 35.5822 36.7268 35.6207 36.3671 35.6564C36.2385 35.6688 36.2385 35.6688 35.9312 35.8171C35.905 35.8295 35.8745 35.8459 35.8439 35.8487C34.4053 35.9984 32.9666 36.1481 31.5258 36.295C31.4125 36.306 31.3209 36.3307 31.2686 36.3967C31.2316 36.4434 31.1836 36.4708 31.1117 36.4791C30.1046 36.5834 29.0976 36.6892 28.0884 36.7908C27.9685 36.8032 27.8965 36.8416 27.8377 36.8993C27.8181 36.9186 27.8006 36.9405 27.7723 36.9542C27.7461 36.9666 27.7069 36.9707 27.6742 36.9748C26.811 37.0641 25.9479 37.1561 25.0825 37.2413C24.9539 37.2537 24.9016 37.3045 24.8383 37.358C24.8165 37.3759 24.8013 37.4006 24.7729 37.413C24.7446 37.424 24.7032 37.424 24.6683 37.4267C23.949 37.5009 23.2297 37.5764 22.5104 37.6506C22.3709 37.6437 22.3403 37.7234 22.2728 37.7714C22.2488 37.7879 22.2314 37.8099 22.203 37.8209C22.1725 37.8318 22.1332 37.8305 22.0962 37.8332C21.5207 37.8923 20.9453 37.9555 20.3677 38.0104C20.2347 38.0227 20.2085 38.0928 20.1366 38.1409C20.1126 38.156 20.0887 38.1793 20.0603 38.1834C19.7007 38.2233 19.341 38.2603 18.9814 38.296C18.8615 38.3084 18.8615 38.307 18.65 38.443C18.6261 38.4581 18.5977 38.4746 18.5672 38.4787C18.0288 38.5364 17.4882 38.5913 16.9476 38.6476C16.8779 38.6545 16.8299 38.6875 16.7951 38.7342C16.7602 38.7809 16.7101 38.8111 16.6403 38.8179C16.2087 38.8633 15.7771 38.91 15.3455 38.9512C15.2256 38.9621 15.1471 38.9965 15.0948 39.0583C15.0556 39.105 15.0076 39.1283 14.9313 39.1366C14.4998 39.1805 14.0682 39.2286 13.6344 39.267C13.508 39.278 13.4426 39.3247 13.3902 39.3824C13.3488 39.4291 13.3009 39.4456 13.2202 39.4538C12.429 39.5335 11.6356 39.6131 10.8465 39.701C10.7135 39.7161 10.6459 39.6681 10.5587 39.6337C10.4345 39.5857 10.319 39.5335 10.319 39.4263C10.319 39.4099 10.2819 39.3906 10.2558 39.3769C10.0618 39.2739 10.0618 39.2739 10.0313 39.164C10.0138 39.0967 9.9942 39.0281 9.97894 38.9594C9.95061 38.8468 9.88083 38.8179 9.68029 38.8385C9.60836 38.8454 9.53643 38.855 9.4645 38.8605C9.35769 38.8701 9.27705 38.8248 9.25743 38.7424C9.24653 38.6971 9.23347 38.6518 9.22257 38.6064C9.33156 38.5954 9.32935 38.5941 9.52117 38.4279C9.60182 38.3579 9.60186 38.3579 9.44709 38.2878C9.38824 38.2617 9.33155 38.2329 9.26834 38.2081C9.24 38.1972 9.20296 38.1903 9.17244 38.193C8.99152 38.2095 8.81279 38.2288 8.63405 38.248C8.34632 38.2782 8.34629 38.2782 8.0542 38.1381C8.03022 38.1271 7.99316 38.1065 7.99752 38.0955C8.0215 38.0447 8.08035 38.0227 8.15446 38.0172C8.26345 38.009 8.37025 37.9953 8.47706 37.9843C8.54899 37.9774 8.62092 37.9692 8.69285 37.9623C8.76043 37.9101 8.83021 37.8593 8.89343 37.8058C8.9937 37.7234 8.99366 37.7206 8.85633 37.6629C8.76914 37.6245 8.67542 37.5901 8.58605 37.5544C8.47924 37.5654 8.37025 37.5778 8.26345 37.5874C8.1283 37.5997 8.0738 37.5736 8.03893 37.4844C8.00841 37.4061 8.04547 37.3388 8.15009 37.3223C8.2569 37.3058 8.35721 37.2949 8.41171 37.2248C8.46402 37.1575 8.55556 37.1314 8.66891 37.1259C8.74084 37.1218 8.81277 37.1122 8.8847 37.104C8.97843 37.093 9.02858 37.0229 9.00896 36.9446C8.99806 36.8938 8.97626 36.8512 8.89124 36.8403C8.51415 36.7922 8.50976 36.7936 8.3223 36.7002C8.30487 36.6919 8.29182 36.6672 8.29836 36.6549C8.30926 36.6343 8.33324 36.604 8.3594 36.5999C8.61007 36.5697 8.86073 36.5422 9.1114 36.5216C9.19423 36.5148 9.25527 36.5051 9.28361 36.4543C9.32285 36.3843 9.30541 36.3197 9.22912 36.2717C9.20514 36.2566 9.16587 36.2373 9.13971 36.2387C8.85199 36.2634 8.56645 36.295 8.27872 36.3197C8.25256 36.3225 8.20463 36.2992 8.19373 36.2813C8.17194 36.2483 8.20461 36.2044 8.2809 36.1893C8.38117 36.1687 8.48362 36.1673 8.55119 36.0986C8.64492 36.0011 8.76043 35.9119 8.86506 35.8185C8.8825 35.802 8.91088 35.7704 8.90434 35.7676C8.84984 35.7374 8.78662 35.7141 8.72995 35.6852C8.63404 35.6372 8.63402 35.5699 8.65581 35.5053C8.67325 35.4531 8.73864 35.4325 8.8193 35.4325C8.85417 35.4325 8.89777 35.4325 8.9261 35.4202C9.00021 35.39 9.0242 35.3515 8.98714 35.3227C8.96534 35.3062 8.92613 35.2829 8.89997 35.2856C8.4335 35.3309 7.96482 35.3749 7.50053 35.4312C7.36321 35.4476 7.30004 35.3955 7.21721 35.3584C7.15399 35.3295 7.0951 35.3185 7.01663 35.3391C6.94252 35.3584 6.87061 35.3474 6.82484 35.3021C6.78778 35.265 6.85316 35.2334 7.02972 35.1977C7.06242 35.1908 7.09946 35.1867 7.12344 35.173C7.37629 35.0246 7.37628 35.0233 7.55066 35.004C7.72068 34.9862 7.72072 34.9848 7.81009 34.9052C7.85151 34.8681 7.89725 34.831 7.93648 34.7925C7.95174 34.7774 7.97793 34.75 7.96921 34.7417C7.92126 34.6992 7.85584 34.6895 7.77955 34.6992C7.60953 34.7225 7.40902 34.7033 7.31965 34.8337C7.28477 34.8832 7.23027 34.8969 7.1518 34.9052C6.36273 34.9848 5.57363 35.07 4.78238 35.1469C4.65377 35.1592 4.59495 35.2101 4.54482 35.2664C4.50122 35.3131 4.45326 35.3268 4.37043 35.335C4.2876 35.3433 4.22217 35.3474 4.17422 35.3021C4.14588 35.2746 4.16986 35.2362 4.23526 35.1977C4.32899 35.1428 4.31154 35.0741 4.28102 35.0095C4.25923 34.967 4.19166 34.9368 4.11972 34.9395C4.01291 34.945 3.91049 34.9601 3.82112 34.9052C3.76881 34.8736 3.7034 34.8516 3.64455 34.8241C3.5312 34.7678 3.41785 34.7101 3.25873 34.7472C3.14974 34.7335 3.07345 34.684 2.98626 34.6456C2.84022 34.5824 2.82714 34.5728 2.93177 34.5055C3.04947 34.43 2.95791 34.3311 3.0233 34.2569C3.09305 34.1773 3.18899 34.1072 3.274 34.0331C3.2958 34.0138 3.31543 33.996 3.33722 33.9768C3.28709 33.9493 3.24132 33.915 3.18247 33.8957C3.10618 33.871 3.06694 33.8408 3.0713 33.7556C3.05604 33.7433 3.06254 33.7749 3.07997 33.7831C3.09959 33.7913 3.14758 33.7845 3.17156 33.7749C3.23259 33.7488 3.26308 33.7144 3.24782 33.6856C3.2391 33.6705 3.19772 33.6513 3.17156 33.6513C3.12361 33.6513 3.0822 33.6815 3.06912 33.7556C2.82498 33.812 2.57209 33.8394 2.31924 33.8614C2.29308 33.8641 2.26041 33.8367 2.22989 33.8229C2.12962 33.7762 2.12961 33.7776 1.83534 33.7639C1.80482 33.7625 1.76343 33.7433 1.74817 33.7241C1.68496 33.6403 1.68715 33.5483 1.65664 33.459C1.71331 33.4013 1.76994 33.345 1.82879 33.2887C1.9465 33.1747 2.09912 33.0744 2.19067 32.9495C2.17105 32.8822 2.14489 32.8149 2.2408 32.7599C2.51327 32.6913 2.51111 32.6913 2.58522 32.6253C2.79665 32.4386 3.0059 32.2504 3.22605 32.0664C3.28491 32.0183 3.28492 31.9922 3.18029 31.9716C3.14759 31.9661 3.11267 31.9647 3.07779 31.9675C2.9688 31.9771 2.85982 32.0018 2.75301 31.9963C2.6462 31.9922 2.56773 31.9318 2.48054 31.8947C2.39117 31.8562 2.3018 31.8164 2.21243 31.7766C2.10999 31.7807 2.00756 31.8192 1.90511 31.7574C1.82664 31.7093 1.72855 31.675 1.63918 31.6351C1.70676 31.5308 1.8332 31.4511 1.93129 31.3591C2.02066 31.2753 2.02279 31.2767 2.26256 31.2121C2.37591 31.1819 2.41515 31.0267 2.31924 30.9814C2.20371 30.9265 2.08167 30.8756 1.96396 30.8235C1.86152 30.8276 1.75691 30.8647 1.65882 30.8029C1.58253 30.7562 1.49532 30.7246 1.36889 30.7424C1.15528 30.7726 0.937309 30.7878 0.721513 30.8125C0.647401 30.8207 0.566727 30.8152 0.53403 30.7685C0.512233 30.7356 0.57545 30.6902 0.647382 30.6806C0.75637 30.6669 0.854448 30.6504 0.908942 30.5818C0.961257 30.5131 1.05716 30.4925 1.1705 30.4829C1.20102 30.4801 1.23592 30.4636 1.25118 30.4471C1.32965 30.3675 1.41685 30.2988 1.58469 30.3016C1.65444 30.2741 1.69147 30.2398 1.66968 30.2068C1.6566 30.1889 1.61085 30.1656 1.58469 30.1684C1.40377 30.1821 1.22286 30.1958 1.04629 30.2206C0.963464 30.2315 0.900217 30.2343 0.847903 30.1931C0.810847 30.1656 0.830463 30.1285 0.900215 30.0887C0.961248 30.0544 0.978705 30.0145 0.974346 29.9678C0.963447 29.8593 0.898041 29.8278 0.688785 29.8346C0.538381 29.8401 0.501323 29.8223 0.468627 29.7289C0.459908 29.7069 0.438149 29.6767 0.453407 29.6616C0.547136 29.5682 0.608174 29.4528 0.784734 29.4089C0.854487 29.3924 0.928569 29.3924 0.972164 29.3567C1.01576 29.321 1.05501 29.2798 1.10079 29.2454C1.15746 29.2042 1.19666 29.1658 1.1705 29.1397C1.12691 29.093 1.05718 29.0889 0.976528 29.1054C0.906775 29.1191 0.832666 29.1205 0.760734 29.1287C0.632128 29.1438 0.527523 29.1081 0.512265 29.0477C0.470849 28.8884 0.427241 28.7304 0.390185 28.5711C0.385826 28.5519 0.396695 28.5272 0.414133 28.5107C0.475166 28.453 0.540584 28.3981 0.603797 28.3418C0.677909 28.2772 0.795635 28.2896 0.895904 28.2772C1.03759 28.2594 1.03754 28.2607 1.22718 28.1289C1.30129 28.0767 1.4299 28.0973 1.50619 28.0506C1.53017 28.0355 1.56723 28.0108 1.56069 27.997C1.55197 27.9792 1.5084 27.9654 1.4757 27.9572C1.44518 27.949 1.40814 27.9448 1.37544 27.949C0.978724 27.9888 0.584199 28.0314 0.187483 28.0698C0.11991 28.0767 0.0457962 28.0465 0.0218189 28.0039C-0.00215847 27.9641 0.00435952 27.916 0 27.8707C0.063213 27.8144 0.135117 27.7622 0.189611 27.7017C0.231027 27.6551 0.27899 27.6345 0.361821 27.6317C0.470809 27.6276 0.577628 27.6111 0.699694 27.5987C0.926389 27.3982 1.14871 27.1881 1.39284 26.9876C1.49093 26.9066 1.46699 26.8242 1.48661 26.7376C1.50623 26.658 1.65226 26.6703 1.75035 26.647C1.82882 26.6278 1.85495 26.5838 1.82443 26.5536C1.80699 26.5357 1.76778 26.5151 1.73726 26.5151C1.66533 26.5151 1.5934 26.5275 1.52147 26.5344C1.44954 26.5412 1.36671 26.5371 1.30786 26.5605C1.25118 26.5824 1.2141 26.6291 1.17705 26.669C1.13563 26.7129 1.08118 26.728 0.998347 26.7308C0.891538 26.7335 0.784737 26.7459 0.677928 26.7555C0.560221 26.7019 0.438129 26.6497 0.324782 26.5934C0.302984 26.5824 0.298601 26.5509 0.300781 26.5303C0.305141 26.4767 0.272453 26.4437 0.200521 26.4176C0.139488 26.3957 0.0893488 26.3641 0.0326751 26.3366C0.0762703 26.2995 0.124242 26.2638 0.159118 26.224C0.23541 26.1402 0.33133 26.0798 0.496991 26.0825C0.562384 26.029 0.614684 25.9631 0.699694 25.926C0.780345 25.8903 0.917676 25.926 0.97871 25.8449C1.00923 25.8051 1.05503 25.7598 1.11388 25.7433C1.20761 25.7172 1.32967 25.731 1.38417 25.654C1.41686 25.6101 1.4648 25.5703 1.52801 25.5593C1.59995 25.5469 1.67404 25.5442 1.72635 25.5181C1.75469 25.5043 1.78521 25.4824 1.78521 25.4631C1.78521 25.4508 1.74165 25.4315 1.71113 25.4233C1.6828 25.4137 1.6457 25.4068 1.613 25.4096C1.50401 25.4178 1.39721 25.4329 1.28822 25.4412C1.2577 25.4439 1.22284 25.4343 1.19014 25.4261C1.09423 25.4041 1.10076 25.3766 1.17705 25.3272C1.25334 25.2791 1.30786 25.2173 1.37108 25.161C1.44083 25.1514 1.52801 25.1555 1.57596 25.1294C1.65661 25.0868 1.71327 25.025 1.77866 24.9715C1.8506 24.9632 1.9247 24.9605 1.99228 24.9454C2.02061 24.9399 2.0337 24.9097 2.05768 24.8918C2.10127 24.8575 2.13836 24.808 2.19721 24.7916C2.29312 24.7668 2.41083 24.7764 2.4675 24.7009C2.5002 24.657 2.55031 24.6103 2.61135 24.6075C2.78137 24.602 2.8533 24.5265 2.94049 24.4551C3.00589 24.4015 3.14539 24.429 3.21733 24.3754C3.26528 24.3411 3.30018 24.2985 3.34813 24.2655C3.36775 24.2518 3.40915 24.2449 3.44185 24.2408C3.62059 24.2202 3.8015 24.2051 3.98024 24.1831C4.00858 24.179 4.03476 24.1584 4.05655 24.1419C4.10233 24.1062 4.13063 24.0568 4.18731 24.0334C4.24398 24.0101 4.32462 24.0101 4.39437 24.0032C4.61889 23.9826 4.63634 23.9881 4.73879 23.8714C4.82162 23.7766 5.02437 23.8439 5.09194 23.7395C5.13118 23.6791 5.20308 23.6297 5.33168 23.6228C5.5126 23.6132 5.69134 23.5871 5.87226 23.5692C6.03356 23.5528 6.03139 23.5527 6.20577 23.425C6.28424 23.3673 6.39979 23.3756 6.50224 23.3646C6.61123 23.3536 6.71148 23.3371 6.7638 23.2685C6.81611 23.2012 6.91201 23.1792 7.02318 23.1696C7.12563 23.16 7.24118 23.1668 7.32183 23.1119C7.51801 22.9801 7.51583 22.9787 7.65316 22.9649C7.86895 22.943 8.08474 22.921 8.30054 22.8976C8.4444 22.8825 8.5948 22.8798 8.72995 22.8496C8.82803 22.8276 8.87162 22.7507 8.93483 22.6971C9.11357 22.6765 9.2923 22.6559 9.47104 22.6367C9.72171 22.6092 9.97456 22.5845 10.2274 22.5584C10.3364 22.5062 10.3517 22.3909 10.5348 22.3854C10.6438 22.3826 10.7506 22.3648 10.8596 22.3538C11.0405 22.3346 11.2192 22.3098 11.4001 22.3002C11.5375 22.2934 11.5614 22.2192 11.6333 22.1725C11.6573 22.156 11.6791 22.1327 11.7075 22.1286C11.9908 22.0901 12.2829 22.0819 12.5597 22.0256C12.5881 22.0201 12.6142 21.9912 12.6208 21.9706C12.6251 21.9596 12.5881 21.939 12.5641 21.9294C12.5358 21.9184 12.4987 21.9074 12.4682 21.9102C11.568 22.0022 10.6678 22.0956 9.76751 22.1876C9.64109 22.2014 9.64109 22.2 9.33374 22.351C9.30758 22.3634 9.27703 22.3771 9.24434 22.3813C9.10047 22.3977 8.95443 22.4074 8.81275 22.428C8.69722 22.4444 8.60135 22.4279 8.51851 22.3785C8.45966 22.3428 8.3986 22.3318 8.32449 22.3346C8.24166 22.3387 8.18719 22.3538 8.13924 22.3909C8.07603 22.4417 8.04332 22.5076 7.91035 22.5213C7.29784 22.5804 6.68529 22.6463 6.07496 22.7095C5.98995 22.6903 5.94854 22.6614 5.97034 22.6271C5.98341 22.6065 6.00958 22.579 6.03574 22.5763C6.28641 22.5474 6.53926 22.5227 6.78993 22.4953C6.8248 22.4911 6.87275 22.4939 6.89237 22.4801C6.98828 22.4183 7.02319 22.3181 7.20411 22.3112C7.30874 22.3071 7.41554 22.2865 7.5158 22.2673C7.54414 22.2618 7.5703 22.2329 7.57684 22.2123C7.57902 22.2013 7.54414 22.1807 7.51799 22.1711C7.42208 22.1313 7.31093 22.1794 7.21502 22.1519C7.18233 22.1423 7.13652 22.1286 7.12998 22.1121C7.12562 22.097 7.16268 22.0722 7.18884 22.0571C7.21282 22.0434 7.24549 22.031 7.27819 22.0269C7.56592 21.9953 7.85369 21.9624 8.14142 21.9377C8.25913 21.928 8.34194 21.8937 8.39425 21.8305C8.43349 21.7838 8.48144 21.7591 8.55555 21.7523C9.05908 21.7014 9.56259 21.6451 10.0683 21.5984C10.1947 21.5874 10.2601 21.5421 10.3125 21.4831C10.3539 21.4364 10.4018 21.4199 10.4825 21.4117C11.204 21.3402 11.9211 21.2606 12.6426 21.1919C12.7756 21.1796 12.8148 21.1205 12.8824 21.0697C12.9064 21.0518 12.9216 21.0299 12.9521 21.0189C12.9826 21.0079 13.0219 21.0092 13.0589 21.0065C13.6344 20.9474 14.2099 20.8843 14.7875 20.8293C14.9226 20.817 14.9488 20.7483 15.0185 20.7002C15.0425 20.6851 15.0643 20.6604 15.0926 20.6563C15.5242 20.6096 15.9558 20.5656 16.3874 20.5203C16.6751 20.4901 16.9629 20.4599 17.2506 20.4311C17.3923 20.4173 17.3923 20.4159 17.5841 20.2855C17.6059 20.2704 17.6364 20.2525 17.6648 20.2484C18.4931 20.1605 19.3192 20.0767 20.1475 19.9902C20.2172 19.9833 20.2674 19.9517 20.3022 19.905C20.3371 19.8583 20.3873 19.8268 20.4549 19.8199C21.1023 19.7512 21.7496 19.6839 22.3992 19.6194C22.5169 19.6084 22.5997 19.5754 22.652 19.5136C22.6913 19.4669 22.7392 19.4422 22.8133 19.4354C23.4607 19.3694 24.1082 19.2994 24.7577 19.2362C24.882 19.2238 24.943 19.1771 25.004 19.1222C25.0258 19.103 25.0433 19.0714 25.0694 19.0687C25.392 19.0302 25.7124 18.9904 26.0372 18.9643C26.1724 18.9533 26.2181 18.8956 26.2726 18.8407C26.3162 18.7967 26.3664 18.7816 26.4492 18.7761C26.6301 18.7638 26.8089 18.7404 26.9854 18.7171C27.0116 18.713 27.0443 18.6827 27.0465 18.6635C27.0508 18.6278 27.0007 18.6031 26.9178 18.5907C26.0547 18.68 25.1893 18.7692 24.3261 18.8585C24.1844 18.8736 24.1844 18.8736 23.9926 19.0041C23.9708 19.0192 23.9403 19.0371 23.9098 19.0412C23.0815 19.1277 22.2553 19.2129 21.427 19.2994C21.3573 19.3063 21.3072 19.3378 21.2723 19.3845C21.2374 19.4312 21.1872 19.4628 21.1197 19.4697C20.3284 19.5521 19.5372 19.6359 18.7437 19.7142C18.626 19.7251 18.5432 19.7567 18.4909 19.8199C18.4517 19.8666 18.4037 19.8913 18.3296 19.8982C17.5732 19.9751 16.819 20.0561 16.0604 20.1303C15.9842 20.1371 15.9275 20.0973 15.9319 20.0602C15.9341 20.041 15.9667 20.0094 15.9929 20.0067C16.3874 19.9614 16.7798 19.9147 17.1765 19.8803C17.3095 19.8693 17.3487 19.8089 17.4163 19.7581C17.438 19.7402 17.4555 19.7169 17.4838 19.7073C17.5144 19.6963 17.5536 19.6977 17.5906 19.6949C18.5258 19.5974 19.4609 19.4985 20.3982 19.4065C20.5333 19.3928 20.5595 19.3255 20.6292 19.2774C20.6532 19.2609 20.675 19.2362 20.7033 19.2335C20.9911 19.2005 21.2788 19.1717 21.5665 19.1428C22.07 19.0906 22.5736 19.0384 23.0793 18.9863C23.2253 18.9711 23.2253 18.9711 23.4128 18.842C23.4346 18.8269 23.4651 18.8077 23.4934 18.805C24.8253 18.6663 26.1571 18.5275 27.489 18.3902C27.5587 18.3833 27.6088 18.3518 27.6437 18.3051C27.6786 18.2597 27.7287 18.2268 27.7963 18.2185C29.5968 18.0318 31.3951 17.845 33.1956 17.6609C33.3133 17.6486 33.3961 17.6197 33.4484 17.5552C33.4854 17.5085 33.5356 17.4838 33.6097 17.4755C35.5889 17.2709 37.5681 17.0663 39.5495 16.8603C40.8814 16.7229 42.2132 16.5828 43.545 16.4482C43.6671 16.4359 43.7325 16.3933 43.7935 16.337C43.8131 16.3178 43.8328 16.2862 43.8589 16.2834C44.1445 16.2491 44.43 16.2175 44.7155 16.1859C44.8049 16.223 44.8943 16.2587 44.9837 16.2958C45.0512 16.2436 45.1167 16.19 45.1842 16.1379C45.6158 16.098 46.0409 16.0362 46.4768 16.017C46.5051 16.0156 46.5356 16.0417 46.5662 16.0555C46.7689 16.142 46.8844 16.1351 47.013 16.0197C47.0588 15.9785 47.098 15.9415 47.1678 15.9346C47.3836 15.9099 47.6016 15.8934 47.8152 15.8645C47.9307 15.8494 48.0266 15.8632 48.1094 15.9126C48.1683 15.9483 48.2294 15.9634 48.3013 15.9552C48.698 15.914 49.0925 15.8742 49.4893 15.8302C49.5176 15.8275 49.5437 15.8041 49.5655 15.7876C49.6113 15.7519 49.6505 15.7135 49.6941 15.6764C49.753 15.6997 49.8184 15.7176 49.8663 15.7478C49.9274 15.7835 49.984 15.7835 50.0669 15.7739C51.6494 15.6077 53.2341 15.4457 54.8166 15.2781C54.9517 15.2644 55.0106 15.3221 55.1021 15.3523C55.1326 15.3633 55.1632 15.377 55.1958 15.3797C55.2307 15.3825 55.2678 15.3743 55.3027 15.3701C56.4906 15.2465 57.6786 15.1243 58.8666 15.0007C59.0235 14.9842 59.0235 14.9842 59.2568 15.0694C59.2851 15.0803 59.3221 15.0927 59.3527 15.0886C59.8932 15.035 60.4338 14.9773 60.9722 14.9224C61.042 14.9155 61.1008 14.9375 61.1641 14.9691C61.2883 15.0309 61.297 15.0309 61.3885 14.9403C61.4321 14.8977 61.4779 14.8716 61.5498 14.8592C61.6283 14.8455 61.6915 14.8496 61.7526 14.8743C61.8398 14.9087 61.903 14.9664 62.036 14.9512C62.6114 14.8867 63.189 14.8331 63.7623 14.7672C63.8931 14.7521 63.9629 14.7988 64.0501 14.8331C64.0806 14.8455 64.1089 14.8647 64.1416 14.8688C64.1743 14.873 64.2135 14.8633 64.2484 14.8592C64.9677 14.7851 65.6892 14.7123 66.4063 14.6326C66.5415 14.6175 66.6003 14.6766 66.6919 14.7068C66.7224 14.7178 66.7573 14.737 66.7856 14.7343C67.2172 14.6917 67.651 14.6463 68.0826 14.601C68.2374 14.5845 68.2373 14.5859 68.4727 14.6697C68.5011 14.6807 68.5382 14.6917 68.5687 14.6889C69.0722 14.6381 69.5779 14.5859 70.0814 14.5337C70.2362 14.5172 70.2362 14.5173 70.683 14.5887C70.7157 14.5942 70.7506 14.6024 70.7833 14.5997C71.3588 14.5406 71.9364 14.4829 72.5118 14.4197C72.6274 14.4074 72.7233 14.4184 72.8061 14.4678C72.865 14.5035 72.926 14.5186 72.9979 14.5104C73.6453 14.4431 74.2949 14.3785 74.9401 14.3071C75.0644 14.2934 75.145 14.3236 75.2322 14.3634C75.2605 14.3772 75.2889 14.3964 75.3216 14.4019C75.3543 14.4074 75.3913 14.4019 75.4262 14.3978C76.0736 14.3305 76.7231 14.2673 77.3683 14.1945C77.4991 14.1794 77.5689 14.2261 77.6561 14.2604C77.6866 14.2728 77.7193 14.2975 77.7454 14.2961C77.9983 14.2728 78.2511 14.2522 78.5018 14.2179C78.637 14.1986 78.6958 14.2618 78.7874 14.292C78.8179 14.3016 78.8528 14.3222 78.8811 14.3195C79.4217 14.2659 79.9623 14.2096 80.5007 14.1519C80.577 14.1437 80.6336 14.156 80.6947 14.1918C80.7753 14.2398 80.8691 14.2591 80.9868 14.2439C81.2374 14.2124 81.4903 14.1904 81.7431 14.1643C81.8914 14.1492 81.8914 14.1492 82.3448 14.2206C82.3774 14.2261 82.4123 14.2343 82.445 14.2316C82.8766 14.1876 83.3104 14.1451 83.7398 14.097C83.8553 14.0833 83.9512 14.0956 84.0341 14.1451C84.0929 14.1808 84.1517 14.1959 84.2259 14.1876C84.6226 14.1464 85.0172 14.1052 85.4139 14.064C85.5577 14.0489 85.7016 14.0228 85.8455 14.0228C85.9501 14.0242 86.0264 14.0901 86.1201 14.1231C86.1463 14.1327 86.1899 14.1217 86.2247 14.119C86.7283 14.0668 87.2339 14.0187 87.7353 13.9597C87.8661 13.9446 87.9358 13.9912 88.023 14.0256C88.0536 14.0379 88.0862 14.0627 88.1124 14.0613C88.2933 14.0462 88.472 14.0256 88.653 14.0077C88.8688 13.9858 89.0867 13.9693 89.3003 13.9391C89.4747 13.9143 89.5401 14.0338 89.6796 14.0379C89.7864 14.0421 89.8954 14.0187 90.0022 14.0077C90.218 13.9858 90.4338 13.961 90.6496 13.9418C90.7259 13.9349 90.7848 13.913 90.8088 13.8635C90.8131 13.8539 90.7761 13.8333 90.7521 13.8209C90.4622 13.6809 90.4622 13.6809 90.1701 13.7111C89.9892 13.7303 89.8104 13.7495 89.6295 13.766C89.599 13.7688 89.5641 13.7578 89.5336 13.7495C89.4464 13.7262 89.4551 13.6987 89.5292 13.6493C89.6033 13.5998 89.66 13.5394 89.7232 13.4831C89.8126 13.5188 89.8998 13.5545 89.9892 13.5902C90.0611 13.5833 90.133 13.5751 90.205 13.5683C90.5646 13.5325 90.9243 13.4955 91.284 13.4625C91.3101 13.4598 91.3428 13.4872 91.3733 13.501C91.4605 13.5408 91.539 13.5751 91.6654 13.56C91.988 13.5202 92.3128 13.4913 92.6354 13.457C92.7771 13.4419 92.7771 13.4419 93.0256 13.527C93.0539 13.5367 93.091 13.5476 93.1215 13.5449C93.4463 13.5133 93.7689 13.479 94.0936 13.446C94.1634 13.4392 94.231 13.457 94.2811 13.4968C94.3007 13.5133 94.2964 13.5408 94.3792 13.766C94.6364 13.9487 94.813 13.9295 94.9917 13.913C95.068 13.9061 95.1356 13.8992 95.1857 13.8718C95.2119 13.8567 95.2446 13.8347 95.2446 13.8168C95.2446 13.8031 95.1966 13.7811 95.1661 13.7784C94.9503 13.7509 94.7454 13.8086 94.534 13.8209C94.4359 13.8264 94.3509 13.7784 94.3334 13.7001C94.3291 13.6781 94.3225 13.6548 94.316 13.6328C94.3094 13.6108 94.3051 13.5875 94.2986 13.5655C94.2136 13.5586 94.1634 13.5834 94.1264 13.63C94.0958 13.6685 94.0522 13.7125 93.9934 13.7331C93.9345 13.755 93.8539 13.7509 93.7819 13.7578C93.7122 13.7646 93.6359 13.7825 93.5705 13.7729C93.5051 13.7619 93.4528 13.7221 93.3918 13.6973C93.3634 13.685 93.3286 13.6671 93.3002 13.6699C93.0496 13.6932 92.8011 13.7166 92.5526 13.7468C92.4218 13.7633 92.3564 13.7056 92.2736 13.6699C92.2082 13.6424 92.1427 13.6493 92.1319 13.7124C92.1035 13.8635 92.2038 13.9267 92.4261 13.8979C92.6092 13.8731 92.7749 13.869 92.9188 13.9624C92.9384 13.9748 92.9841 13.9803 93.0125 13.9775C93.1912 13.961 93.3678 13.9404 93.5465 13.924C93.5792 13.9212 93.6141 13.9267 93.6446 13.9322C94.0893 14.0063 94.0893 14.0077 94.2397 13.9912C94.3116 13.983 94.3814 13.9761 94.3748 13.7674C94.5122 13.5435 94.7302 13.5284 94.9416 13.4955C95.0789 13.4749 95.1377 13.5353 95.2271 13.5669C95.2576 13.5779 95.2903 13.5998 95.3187 13.5971C95.7873 13.5518 96.2538 13.5037 96.7203 13.4529C96.7987 13.4446 96.8554 13.4529 96.9164 13.4886C96.9949 13.5339 97.0821 13.5628 97.2063 13.5463C97.4548 13.5133 97.7077 13.4927 97.9605 13.4652C98.0891 13.4515 98.0891 13.4515 98.3485 13.5366C98.3769 13.5463 98.4139 13.5573 98.4444 13.5545C98.6973 13.5312 98.948 13.5023 99.1987 13.4776C99.2684 13.4707 99.3316 13.49 99.3861 13.527C99.4406 13.5641 99.506 13.5834 99.5736 13.5765C99.8264 13.5518 100.077 13.5243 100.328 13.4996C100.358 13.4968 100.395 13.5064 100.424 13.5161C100.69 13.6012 100.69 13.6012 100.812 13.5875C100.99 13.5669 101.174 13.5573 101.35 13.5298C101.522 13.5023 101.612 13.582 101.729 13.6259C102.052 13.5943 102.377 13.5682 102.697 13.5298C102.828 13.5133 102.898 13.5586 102.985 13.5943C103.015 13.6067 103.046 13.6328 103.074 13.6314C103.183 13.6259 103.29 13.6108 103.397 13.5998C103.504 13.5888 103.613 13.5779 103.719 13.5669C103.842 13.6067 103.922 13.7001 104.097 13.6685C104.201 13.6493 104.312 13.6452 104.419 13.6342C104.526 13.6232 104.635 13.6122 104.742 13.6012C104.814 13.5943 104.888 13.5902 104.958 13.5779C105.086 13.5573 105.149 13.6246 105.241 13.6548C105.271 13.6644 105.306 13.6809 105.335 13.6781C105.55 13.6589 105.768 13.6424 105.98 13.6108C106.143 13.5861 106.255 13.6273 106.37 13.685C106.394 13.6973 106.435 13.7042 106.466 13.7015C106.719 13.6781 106.969 13.6493 107.22 13.6245C107.288 13.6177 107.353 13.6397 107.408 13.6754C107.464 13.7124 107.527 13.7303 107.597 13.7234C107.848 13.6987 108.101 13.6712 108.351 13.6465C108.382 13.6438 108.419 13.6548 108.447 13.6658C108.691 13.7509 108.692 13.7523 108.835 13.7358C108.87 13.7317 108.907 13.7289 108.942 13.7248C109.121 13.7056 109.306 13.6987 109.481 13.6658C109.681 13.6287 109.827 13.6754 109.969 13.7537C110.148 13.7372 110.331 13.7276 110.505 13.7001C110.636 13.6795 110.706 13.7317 110.793 13.766C110.823 13.7784 110.856 13.8031 110.882 13.8003C111.135 13.777 111.388 13.7564 111.636 13.7221C111.771 13.7028 111.83 13.7646 111.922 13.7962C111.952 13.8072 111.985 13.8264 112.013 13.8237C112.157 13.8127 112.301 13.7962 112.445 13.7811C112.613 13.7633 112.613 13.7646 112.835 13.8484C112.94 13.8882 113.044 13.8566 113.147 13.847C113.256 13.836 113.358 13.8278 113.446 13.8841C113.5 13.9198 113.565 13.9418 113.633 13.9363C113.777 13.9239 113.923 13.9116 114.065 13.891C114.178 13.8745 114.276 13.8855 114.359 13.9363C114.418 13.972 114.479 13.9899 114.551 13.9816C114.873 13.9487 115.198 13.9143 115.521 13.8827C115.549 13.88 115.588 13.8924 115.614 13.9047C115.675 13.9294 115.734 13.9569 115.793 13.9844C115.935 13.972 116.081 13.9665 116.22 13.9473C116.369 13.9281 116.504 13.9212 116.619 13.9967C116.643 14.0132 116.678 14.0366 116.706 14.0352C116.815 14.0297 116.922 14.016 117.029 14.005C117.136 13.994 117.245 13.983 117.352 13.972C117.476 14.0064 117.554 14.1052 117.729 14.0736C117.833 14.0544 117.945 14.0503 118.051 14.0393C118.158 14.0283 118.267 14.016 118.374 14.0064C118.409 14.0036 118.448 13.9967 118.479 14.0022C118.511 14.0077 118.54 14.027 118.568 14.0407C118.655 14.0805 118.736 14.1203 118.86 14.097C118.965 14.0778 119.076 14.0737 119.183 14.0613C119.329 14.0462 119.329 14.0462 119.571 14.1327C119.669 14.1684 119.78 14.1217 119.874 14.1519C119.937 14.1725 119.991 14.2069 120.052 14.2302C120.079 14.2398 120.12 14.2439 120.15 14.2412C120.294 14.2288 120.44 14.2165 120.582 14.1959C120.698 14.1794 120.794 14.1959 120.874 14.2453C120.933 14.281 120.992 14.2961 121.066 14.2879C121.426 14.2494 121.785 14.2165 122.143 14.1739C122.265 14.1588 122.363 14.1821 122.43 14.2316C122.546 14.3167 122.71 14.2165 122.829 14.2852C122.904 14.3277 122.978 14.3772 123.113 14.3566C123.361 14.3209 123.614 14.3016 123.865 14.2769C123.954 14.314 124.044 14.3511 124.135 14.3882C124.279 14.3731 124.423 14.3579 124.567 14.3442C124.673 14.3332 124.782 14.3209 124.889 14.3112C124.924 14.3085 124.961 14.303 124.994 14.3099C125.027 14.3167 125.053 14.3346 125.083 14.3483C125.234 14.4156 125.234 14.417 125.482 14.3895C125.589 14.3772 125.691 14.3689 125.781 14.4239C125.864 14.4747 125.962 14.4843 126.075 14.4692C126.289 14.4417 126.505 14.4211 126.722 14.4019C126.79 14.395 126.853 14.4184 126.91 14.4541C126.995 14.5104 127.1 14.5049 127.206 14.4898C127.348 14.4706 127.488 14.4513 127.607 14.5282C127.631 14.5447 127.668 14.5681 127.695 14.5667C127.873 14.5557 128.054 14.5475 128.229 14.5214C128.403 14.4953 128.488 14.5804 128.608 14.6216C128.787 14.6038 128.968 14.5859 129.146 14.5681C129.181 14.5639 129.223 14.5516 129.253 14.5585C129.382 14.5873 129.456 14.6903 129.632 14.6587C129.735 14.6409 129.846 14.6354 129.953 14.6313C129.981 14.6299 130.018 14.6532 130.038 14.6711C130.049 14.6807 130.038 14.7068 130.025 14.7205C129.986 14.759 129.938 14.7947 129.903 14.8345C129.898 14.84 129.94 14.8647 129.964 14.8757C130.023 14.9004 130.09 14.8963 130.169 14.8853C130.236 14.8757 130.306 14.8949 130.354 14.9361C130.374 14.9526 130.367 14.9801 130.326 15.0707C130.326 15.138 130.371 15.1078 130.387 15.0639C130.411 15.0007 130.365 14.9801 130.278 15.0144C130.217 15.0391 130.186 15.0748 130.201 15.1037C130.21 15.1188 130.251 15.138 130.326 15.0707C130.517 14.9883 130.661 14.9732 130.805 14.9581C130.842 14.954 130.886 14.9403 130.912 14.9485C131.006 14.9815 131.093 15.0213 131.184 15.0584C131.289 15.0501 131.387 15.0295 131.49 15.0831C131.633 15.1586 131.64 15.1518 131.78 15.1366C131.851 15.1284 131.923 15.1216 131.995 15.1147C132.067 15.1078 132.124 15.1284 132.187 15.16C132.316 15.2245 132.327 15.2245 132.412 15.1366C132.462 15.0831 132.497 15.0652 132.56 15.09C132.769 15.1737 132.771 15.1792 132.95 15.1545C133.098 15.1339 133.238 15.1284 133.347 15.2067C133.421 15.2616 133.445 15.2493 133.504 15.1916C133.661 15.0391 133.733 15.0419 134.027 15.1518C134.164 15.2039 134.306 15.1476 134.445 15.1408C134.563 15.1353 134.646 15.1682 134.655 15.2548C134.661 15.3083 134.681 15.3468 134.759 15.3646C134.79 15.3715 134.827 15.3811 134.857 15.3784C135.038 15.3619 135.217 15.3427 135.398 15.3234C135.489 15.3138 135.54 15.2493 135.522 15.1641C135.503 15.0735 135.537 15.0405 135.668 15.0144C135.747 14.9993 135.81 15.0021 135.873 15.0268C135.943 15.0543 135.923 15.079 135.862 15.1284C135.716 15.2493 135.734 15.3234 135.921 15.4072C135.986 15.436 136.039 15.4621 136.054 15.5047C136.063 15.5267 136.054 15.5555 136.074 15.572C136.18 15.664 136.329 15.7231 136.494 15.767C136.653 15.73 136.762 15.7918 136.884 15.8412C136.98 15.8796 137.094 15.8467 137.196 15.833C137.312 15.8179 137.408 15.8288 137.49 15.8797C137.549 15.9154 137.61 15.9318 137.682 15.925C137.826 15.9099 137.972 15.9003 138.114 15.8783C138.236 15.8591 138.327 15.8865 138.404 15.9332C138.5 15.9923 138.607 15.9524 138.707 15.9607C138.842 15.9703 138.91 16.0925 139.086 16.0596C139.191 16.0403 139.3 16.0335 139.409 16.028C139.437 16.0266 139.472 16.05 139.496 16.0664C139.611 16.142 139.747 16.1378 139.895 16.1159C139.997 16.1008 140.097 16.087 140.198 16.1392C140.363 16.2271 140.547 16.304 140.721 16.3851C140.745 16.4482 140.727 16.5224 140.852 16.5595C140.917 16.5787 140.978 16.6076 141.028 16.6391C141.089 16.6762 141.146 16.6858 141.224 16.6762C141.366 16.657 141.514 16.6529 141.654 16.6281C141.782 16.6062 141.863 16.6515 141.942 16.6941C142.005 16.7284 142.064 16.7449 142.14 16.7202C142.218 16.6968 142.275 16.7119 142.338 16.749C142.428 16.7998 142.434 16.7943 142.731 16.8094C142.761 16.8108 142.798 16.8314 142.816 16.8493C142.824 16.8589 142.805 16.8864 142.789 16.9001C142.77 16.9166 142.739 16.9358 142.711 16.9399C142.388 16.9756 142.064 17.0072 141.741 17.0429C141.708 17.047 141.673 17.0567 141.649 17.0704C141.623 17.0855 141.591 17.1061 141.591 17.1253C141.591 17.139 141.634 17.1555 141.665 17.1651C141.761 17.1967 141.874 17.1487 141.968 17.1844C142.031 17.2077 142.083 17.2407 142.146 17.2626C142.173 17.2723 142.214 17.2709 142.247 17.2681C142.356 17.2585 142.463 17.2448 142.572 17.2366C142.602 17.2352 142.637 17.2489 142.665 17.2599C142.874 17.3423 142.874 17.3423 143.055 17.3245C143.127 17.3176 143.204 17.297 143.271 17.3052C143.337 17.3135 143.393 17.3505 143.452 17.3739C143.574 17.4233 143.69 17.4714 143.698 17.5785C143.703 17.6197 143.775 17.6554 143.847 17.6582C143.916 17.6609 143.99 17.6458 144.062 17.6376C144.232 17.6211 144.232 17.6211 144.453 17.7049C144.514 17.7282 144.579 17.731 144.657 17.7172C144.688 17.7118 144.725 17.7173 144.758 17.7241C144.865 17.7447 144.865 17.7708 144.795 17.8202C144.697 17.893 144.705 17.8999 144.98 17.9617C145.085 17.9851 145.165 18.029 145.253 18.0675C145.394 18.1293 145.392 18.1293 145.298 18.2103C145.277 18.2281 145.257 18.2474 145.235 18.2666C145.172 18.3202 145.122 18.3778 144.991 18.3833C144.847 18.3888 144.703 18.4108 144.559 18.4259C144.42 18.441 144.383 18.474 144.396 18.5674C144.411 18.68 144.44 18.6923 144.69 18.691C144.762 18.691 144.825 18.702 144.88 18.739C144.854 18.783 144.806 18.8173 144.736 18.8256C144.557 18.8462 144.376 18.864 144.198 18.8819C144.054 18.897 143.91 18.9121 143.766 18.9272C143.677 18.9368 143.62 19.0082 143.644 19.0879C143.657 19.1332 143.668 19.1785 143.679 19.2238C143.703 19.3145 143.749 19.3378 143.895 19.3337C143.932 19.3323 143.967 19.3214 144.001 19.3241C144.143 19.3337 144.211 19.4477 144.381 19.4244C144.522 19.4051 144.671 19.401 144.81 19.3763C144.939 19.3543 145.011 19.4038 145.1 19.4408C145.131 19.4532 145.163 19.4793 145.189 19.4779C145.37 19.4628 145.551 19.4477 145.728 19.4216C145.811 19.4106 145.861 19.4189 145.926 19.4518C146.083 19.5315 146.087 19.5274 146.321 19.5026C146.491 19.4834 146.493 19.4862 146.711 19.5699C146.772 19.5933 146.837 19.5933 146.916 19.5823C147.018 19.5686 147.125 19.5466 147.232 19.5672C147.264 19.5727 147.306 19.5892 147.317 19.607C147.323 19.6194 147.293 19.6496 147.267 19.6592C147.075 19.7306 146.85 19.7183 146.641 19.7471C146.576 19.7554 146.51 19.7293 146.456 19.6922C146.399 19.6551 146.338 19.64 146.264 19.6469C146.12 19.662 145.974 19.6716 145.832 19.6935C145.71 19.7128 145.625 19.6812 145.54 19.6386C145.512 19.6249 145.479 19.5988 145.451 19.6001C145.128 19.6276 144.804 19.6551 144.483 19.6935C144.355 19.71 144.28 19.6661 144.193 19.629C144.163 19.6166 144.132 19.5905 144.104 19.5919C143.995 19.5974 143.888 19.6125 143.779 19.6235C143.382 19.6647 142.988 19.7059 142.591 19.7444C142.565 19.7471 142.532 19.7183 142.502 19.7059C142.443 19.6812 142.382 19.6578 142.321 19.6345C142.212 19.6455 142.105 19.6592 141.996 19.6674C141.918 19.6729 141.848 19.6922 141.837 19.7444C141.83 19.7787 141.902 19.8103 141.979 19.8075C142.053 19.8048 142.127 19.7883 142.188 19.8062C142.491 19.8941 142.491 19.8954 142.68 19.8776C142.846 19.8611 142.829 19.8474 142.975 19.9229C143.038 19.9559 143.095 19.9751 143.167 19.9668C143.345 19.9476 143.526 19.9284 143.707 19.9119C143.735 19.9092 143.773 19.9229 143.801 19.9339C144.014 20.0163 144.014 20.019 144.191 19.9984C144.422 19.9737 144.431 19.9668 144.586 20.0506C144.692 20.1083 144.79 20.0685 144.893 20.0657C145.011 20.1193 145.139 20.1674 145.246 20.2278C145.372 20.2992 145.505 20.2868 145.649 20.2662C145.756 20.2511 145.861 20.2456 145.948 20.3019C146.031 20.3541 146.131 20.3596 146.244 20.3459C146.347 20.3335 146.451 20.3074 146.558 20.3377C146.587 20.3459 146.63 20.3665 146.628 20.3789C146.626 20.3981 146.597 20.4256 146.569 20.4338C146.369 20.4901 146.148 20.4887 145.937 20.5148C145.909 20.5189 145.872 20.5038 145.843 20.4929C145.782 20.4681 145.723 20.4393 145.665 20.4132C145.558 20.4214 145.449 20.4242 145.344 20.4407C145.264 20.453 145.202 20.4517 145.144 20.4187C145.089 20.3885 145.03 20.3514 144.965 20.3418C144.899 20.3322 144.823 20.3528 144.751 20.361C144.679 20.3693 144.596 20.3651 144.54 20.3871C144.483 20.4091 144.448 20.4571 144.411 20.4956C144.37 20.5382 144.313 20.5519 144.23 20.556C144.154 20.5602 144.093 20.5547 144.036 20.5162C144.012 20.4997 143.98 20.4874 143.947 20.4764C143.916 20.4668 143.882 20.4516 143.853 20.4544C143.528 20.486 143.206 20.5203 142.881 20.5533C142.72 20.5698 142.722 20.5698 142.386 20.4887C142.356 20.4819 142.319 20.4722 142.288 20.475C142.107 20.4915 141.928 20.5107 141.748 20.5299C141.564 20.5492 141.567 20.5464 141.255 20.4599C141.198 20.4434 141.115 20.4654 141.048 20.4626C140.906 20.4558 140.836 20.3404 140.671 20.3624C140.529 20.3816 140.381 20.3857 140.239 20.4105C140.111 20.4324 140.036 20.3844 139.949 20.3473C139.919 20.3349 139.886 20.3074 139.86 20.3102C139.535 20.3404 139.212 20.3747 138.781 20.3789C138.674 20.3789 138.722 20.4077 138.792 20.4173C138.892 20.4324 138.925 20.4036 138.87 20.3487C138.831 20.3102 138.774 20.291 138.729 20.3006C138.705 20.3061 138.674 20.3322 138.781 20.3789C138.894 20.4311 138.888 20.4599 138.907 20.4764C138.955 20.5162 139.023 20.5327 139.093 20.5272C139.202 20.5176 139.308 20.5038 139.417 20.4956C139.448 20.4929 139.485 20.5025 139.513 20.5135C139.753 20.5986 139.755 20.6041 140.01 20.5711C140.091 20.5615 140.15 20.5615 140.213 20.5876C140.3 20.6233 140.363 20.6838 140.496 20.6645C140.673 20.6384 140.854 20.6233 141.035 20.6082C141.063 20.6055 141.094 20.6302 141.126 20.6412C141.216 20.6741 141.281 20.736 141.414 20.7099C141.516 20.6893 141.628 20.6837 141.737 20.6796C141.765 20.6783 141.809 20.7002 141.822 20.7181C141.848 20.7497 141.815 20.7868 141.741 20.8129C141.71 20.8238 141.669 20.8211 141.634 20.8252C141.49 20.8403 141.346 20.8568 141.203 20.8692C141.126 20.876 141.054 20.8966 141.046 20.9474C141.039 20.9818 141.118 21.012 141.192 21.0092C141.301 21.0051 141.41 20.9941 141.514 20.9763C141.7 20.9461 141.861 20.9543 142.011 21.0408C142.118 21.1013 142.112 21.0793 142.225 21.2578C142.253 21.3032 142.338 21.3073 142.412 21.3045C142.591 21.2977 142.674 21.3183 142.659 21.3608C142.639 21.413 142.576 21.4295 142.495 21.4364C142.351 21.4474 142.207 21.4652 142.064 21.4803C142.029 21.4844 141.989 21.4927 141.957 21.4899C141.924 21.4872 141.894 21.4707 141.865 21.4583C141.804 21.4323 141.752 21.3924 141.687 21.3828C141.621 21.3732 141.545 21.3938 141.473 21.402C141.401 21.4089 141.325 21.4295 141.259 21.4199C141.194 21.4103 141.139 21.3691 141.081 21.3444C141.052 21.332 141.017 21.3128 140.989 21.3141C140.845 21.3251 140.701 21.343 140.557 21.3567C140.381 21.3746 140.381 21.3746 140.167 21.2894C140.106 21.2647 140.043 21.2661 139.962 21.2771C139.788 21.299 139.786 21.2949 139.468 21.2153C139.437 21.207 139.4 21.1974 139.369 21.2015C139.045 21.2331 138.722 21.2674 138.399 21.3004C138.123 21.3292 138.123 21.3293 137.97 21.4666C137.857 21.5682 137.854 21.5682 137.966 21.6149C138.055 21.6534 138.136 21.7097 138.234 21.7303C138.325 21.7495 138.439 21.6877 138.539 21.7509C138.589 21.7825 138.654 21.8168 138.718 21.8223C138.818 21.8292 138.925 21.7893 139.021 21.8498C139.069 21.88 139.141 21.9116 139.202 21.9129C139.308 21.9157 139.417 21.8937 139.524 21.8841C139.557 21.8813 139.594 21.8813 139.624 21.8882C139.657 21.8965 139.685 21.9129 139.714 21.9267C139.801 21.9734 139.895 21.9953 140.008 21.972C140.193 21.9335 140.359 21.9528 140.503 22.0407C140.523 22.053 140.57 22.0544 140.601 22.0489C140.679 22.0352 140.747 22.0338 140.806 22.0599C140.83 22.0709 140.865 22.0901 140.86 22.1025C140.854 22.1231 140.828 22.1505 140.799 22.1574C140.594 22.2041 140.374 22.2096 140.163 22.2343C140.135 22.2371 140.1 22.2192 140.071 22.2068C140.01 22.1821 139.958 22.1409 139.893 22.1313C139.827 22.1217 139.751 22.1395 139.679 22.1464C139.607 22.1533 139.531 22.1739 139.465 22.1656C139.4 22.156 139.339 22.1217 139.287 22.0915C139.226 22.0571 139.167 22.053 139.086 22.0668C138.981 22.0846 138.872 22.0874 138.766 22.097C138.707 22.0709 138.648 22.042 138.587 22.0173C138.559 22.0049 138.524 21.9898 138.493 21.9912C138.349 22.0022 138.205 22.0187 138.062 22.0338C137.918 22.0489 137.918 22.0489 137.674 21.9638C137.645 21.9541 137.608 21.9432 137.578 21.9459C137.397 21.9624 137.218 21.983 137.037 21.9995C136.967 22.0063 136.904 21.9871 136.847 21.95C136.793 21.9129 136.728 21.8923 136.66 21.8992C136.372 21.928 136.085 21.9555 135.797 21.9898C135.681 22.0036 135.583 21.9912 135.505 21.9418C135.413 21.8855 135.311 21.8992 135.204 21.9102C134.962 21.9377 134.96 21.9363 134.805 21.8662C134.774 21.8525 134.744 21.8264 134.716 21.8278C134.465 21.8484 134.212 21.8676 133.964 21.9006C133.833 21.9184 133.763 21.8704 133.676 21.8347C133.645 21.8223 133.613 21.7962 133.587 21.7989C133.406 21.814 133.225 21.8278 133.048 21.8553C132.872 21.8827 132.804 21.755 132.671 21.7564C132.49 21.7577 132.311 21.7893 132.133 21.8086C131.989 21.8237 131.845 21.8388 131.701 21.8539C131.557 21.869 131.413 21.8813 131.269 21.8992C131.193 21.9088 131.136 21.8964 131.073 21.8621C130.993 21.8168 130.897 21.7811 130.81 21.7399C130.677 21.6808 130.677 21.6808 130.515 21.6973C130.48 21.7014 130.443 21.7042 130.408 21.7083C130.145 21.7385 130.145 21.7358 129.809 21.6492C129.794 21.6451 129.755 21.6602 129.739 21.6712C129.693 21.7069 129.652 21.7454 129.611 21.7825C129.552 21.7605 129.48 21.7481 129.441 21.7165C129.329 21.6273 129.155 21.7495 129.042 21.6616C129 21.6286 128.928 21.5998 128.863 21.5916C128.795 21.5833 128.719 21.6025 128.649 21.6108C128.468 21.6314 128.468 21.63 128.314 21.7523C128.235 21.8127 128.122 21.8017 128.019 21.8154C127.913 21.8305 127.81 21.8388 127.721 21.7825C127.64 21.7316 127.542 21.7193 127.427 21.7358C127.285 21.7564 127.139 21.7687 126.995 21.7811C126.964 21.7838 126.927 21.777 126.897 21.7687C126.563 21.6877 126.563 21.6863 126.402 21.7042C126.33 21.7124 126.256 21.7152 126.186 21.7275C126.069 21.7495 125.979 21.7207 125.894 21.6767C125.866 21.663 125.833 21.6369 125.805 21.6383C125.661 21.6451 125.519 21.6575 125.378 21.6699C125.269 21.6795 125.16 21.685 125.055 21.7042C124.881 21.7358 124.796 21.6465 124.676 21.6053C124.497 21.6231 124.316 21.6355 124.137 21.6602C124.054 21.6712 124 21.6671 123.937 21.6341C123.856 21.5929 123.782 21.5462 123.651 21.5668C123.477 21.5943 123.294 21.6039 123.115 21.6204C122.995 21.5778 122.908 21.4913 122.736 21.5229C122.631 21.5421 122.52 21.5462 122.413 21.5572C122.269 21.5723 122.125 21.5861 121.982 21.6026C121.827 21.619 121.829 21.6149 121.591 21.5339C121.454 21.4858 121.312 21.5394 121.173 21.5476C121.064 21.5545 121.009 21.6177 121.035 21.6987C121.062 21.7797 121.003 21.8429 120.902 21.8539C120.652 21.88 120.399 21.9074 120.148 21.9308C120.118 21.9335 120.081 21.9239 120.052 21.9143C119.784 21.8278 119.784 21.8292 119.664 21.8415C119.486 21.8621 119.303 21.8731 119.126 21.8992C119.004 21.917 118.915 21.8882 118.836 21.8415C118.775 21.8058 118.718 21.7976 118.64 21.8058C117.777 21.8978 116.914 21.983 116.053 22.0777C115.924 22.0915 115.85 22.0517 115.763 22.0146C115.732 22.0022 115.704 21.9761 115.673 21.9761C115.601 21.9761 115.529 21.9885 115.457 21.9967C115.135 22.0297 114.812 22.0695 114.487 22.0942C114.35 22.1052 114.313 22.1684 114.254 22.2206C114.208 22.2604 114.156 22.2769 114.076 22.2824C113.997 22.2879 113.94 22.281 113.879 22.2453C113.801 22.1986 113.712 22.1698 113.589 22.189C113.448 22.211 113.304 22.2206 113.158 22.2357C113.084 22.2426 113.027 22.2673 113.003 22.3167C112.999 22.325 113.044 22.3456 113.071 22.3579C113.158 22.3991 113.241 22.4472 113.339 22.476C113.439 22.5049 113.548 22.4719 113.653 22.4637C113.69 22.4609 113.725 22.4527 113.759 22.454C113.792 22.4554 113.831 22.4623 113.855 22.4747C113.969 22.5365 114.089 22.579 114.245 22.5419C114.381 22.5598 114.45 22.6738 114.623 22.6436C114.727 22.6257 114.836 22.6175 114.945 22.6106C114.974 22.6092 115.004 22.634 115.035 22.6463C115.122 22.6807 115.192 22.7356 115.322 22.7122C115.462 22.6875 115.61 22.6834 115.752 22.6642C115.83 22.6532 115.887 22.6628 115.948 22.6985C116.026 22.7438 116.116 22.7782 116.238 22.7562C116.342 22.737 116.454 22.7328 116.56 22.7205C116.7 22.7054 116.7 22.7067 116.948 22.7919C116.977 22.8015 117.014 22.8125 117.044 22.8098C117.225 22.7933 117.404 22.7727 117.585 22.7562C117.655 22.7493 117.722 22.7672 117.77 22.807C117.79 22.8235 117.783 22.851 117.79 22.8743C117.43 22.9114 117.07 22.943 116.713 22.9883C116.578 23.0062 116.517 22.9498 116.427 22.9183C116.397 22.9073 116.364 22.8839 116.336 22.8867C116.083 22.91 115.832 22.9347 115.582 22.9649C115.503 22.9746 115.444 22.9691 115.386 22.9292C115.235 22.8235 115.052 22.8812 114.882 22.8963C114.751 22.9073 114.71 22.9498 114.725 23.0405C114.745 23.1476 114.823 23.1806 115.024 23.1613C115.096 23.1545 115.168 23.1449 115.239 23.1394C115.309 23.1339 115.372 23.1517 115.429 23.1888C115.484 23.2259 115.549 23.2451 115.617 23.2396C115.76 23.2273 115.906 23.2149 116.046 23.1943C116.162 23.1778 116.257 23.1916 116.338 23.2424C116.427 23.2987 116.532 23.2863 116.637 23.274C116.881 23.2465 116.883 23.2479 117.036 23.3165C117.066 23.3303 117.097 23.3564 117.125 23.355C117.376 23.3344 117.629 23.3165 117.875 23.2836C118.003 23.2671 118.078 23.311 118.163 23.3467C118.193 23.3591 118.224 23.3866 118.252 23.3838C118.433 23.3687 118.614 23.3536 118.79 23.3275C118.873 23.3152 118.923 23.3234 118.991 23.3564C119.152 23.4374 119.157 23.4346 119.385 23.4085C119.455 23.4003 119.531 23.3852 119.597 23.3962C119.662 23.4072 119.715 23.447 119.776 23.4717C119.804 23.4827 119.839 23.4978 119.869 23.4951C120.013 23.4841 120.157 23.4676 120.301 23.4525C120.436 23.4374 120.436 23.4388 120.689 23.5239C120.791 23.5596 120.898 23.5294 121.001 23.5184C121.112 23.5061 121.212 23.5061 121.297 23.5596C121.382 23.6132 121.485 23.6104 121.594 23.5994C121.696 23.5885 121.801 23.5583 121.905 23.5953C122.145 23.6805 122.145 23.6818 122.293 23.6654C122.509 23.642 122.723 23.62 122.941 23.5994C122.969 23.5967 123.006 23.6132 123.034 23.6242C123.095 23.6489 123.148 23.6901 123.213 23.6997C123.278 23.7107 123.355 23.6942 123.424 23.686C123.649 23.6599 123.664 23.6503 123.815 23.7409C123.941 23.8151 124.098 23.7079 124.216 23.7931C124.283 23.8412 124.375 23.8796 124.501 23.8563C124.606 23.837 124.715 23.8315 124.824 23.8206C124.996 23.8027 124.996 23.8041 125.214 23.8865C125.242 23.8975 125.279 23.9112 125.308 23.9085C125.452 23.8975 125.598 23.8879 125.737 23.8631C125.901 23.8343 126.005 23.8865 126.127 23.9373C126.223 23.9771 126.337 23.9442 126.439 23.9304C126.55 23.9167 126.651 23.9208 126.733 23.9744C126.821 24.0293 126.923 24.0224 127.032 24.0115C127.134 24.0018 127.239 23.9703 127.344 24.0087C127.568 24.0939 127.568 24.0939 127.732 24.0774C127.876 24.0623 128.019 24.0458 128.163 24.0348C128.192 24.0321 128.226 24.0499 128.255 24.0623C128.316 24.087 128.368 24.1282 128.434 24.1378C128.499 24.1474 128.575 24.1296 128.647 24.1227C128.719 24.1158 128.795 24.0952 128.861 24.1035C128.926 24.1117 128.987 24.1461 129.04 24.1763C129.101 24.212 129.157 24.2161 129.24 24.2024C129.345 24.1845 129.454 24.1804 129.56 24.1708C129.619 24.1969 129.68 24.223 129.737 24.2518C129.796 24.282 129.859 24.2793 129.94 24.2697C130.208 24.2367 130.21 24.2408 130.435 24.326C130.537 24.3644 130.644 24.3328 130.746 24.3232C130.855 24.3122 130.958 24.3067 131.043 24.3617C131.126 24.4139 131.228 24.4207 131.337 24.4042C131.407 24.3933 131.481 24.3864 131.553 24.3823C131.586 24.3809 131.625 24.3864 131.649 24.3974C131.764 24.4551 131.878 24.5073 132.037 24.4702C132.176 24.4812 132.246 24.5938 132.414 24.5718C132.555 24.5526 132.704 24.5485 132.843 24.5237C132.972 24.5018 133.063 24.5402 133.129 24.5883C133.246 24.6734 133.412 24.5581 133.53 24.6419C133.597 24.6899 133.685 24.7284 133.815 24.7078C133.959 24.6858 134.005 24.7146 134.046 24.8012C134.07 24.8506 134.066 24.8904 134.022 24.9289C133.979 24.9687 133.931 24.9619 133.861 24.9165C133.781 24.8657 133.685 24.8561 133.569 24.8671C133.456 24.8781 133.386 24.8067 133.292 24.7792C133.199 24.7504 133.087 24.7984 132.989 24.7613C132.758 24.6748 132.758 24.6748 132.601 24.6913C132.494 24.7023 132.383 24.7078 132.279 24.727C132.154 24.7504 132.074 24.7078 131.989 24.6693C131.958 24.6556 131.928 24.6295 131.902 24.6309C131.651 24.6515 131.398 24.6707 131.15 24.705C131.019 24.7229 130.949 24.6734 130.862 24.6391C130.831 24.6267 130.799 24.602 130.772 24.6048C130.557 24.624 130.343 24.6487 130.127 24.6721C130.086 24.7092 130.04 24.7449 130.001 24.7847C129.959 24.8259 129.903 24.8437 129.82 24.8424C129.683 24.8424 129.547 24.9001 129.41 24.8273C129.268 24.7531 129.258 24.7572 129.12 24.7751C128.946 24.7984 128.761 24.7929 128.597 24.8465C128.569 24.8561 128.538 24.8822 128.538 24.9014C128.536 24.9138 128.582 24.9316 128.61 24.9426C128.706 24.9756 128.817 24.9275 128.913 24.9619C128.976 24.9838 129.029 25.0168 129.092 25.0401C129.118 25.0497 129.157 25.0484 129.192 25.047C129.229 25.0456 129.264 25.036 129.299 25.0374C129.332 25.0388 129.367 25.047 129.393 25.0594C129.513 25.1115 129.639 25.1596 129.746 25.2214C129.85 25.2819 129.948 25.2407 130.053 25.2379C130.472 25.334 130.472 25.3354 130.753 25.3052C130.823 25.2983 130.895 25.2901 130.966 25.2915C130.997 25.2915 131.025 25.3162 131.056 25.3299C131.143 25.3711 131.226 25.4082 131.348 25.3862C131.453 25.367 131.564 25.3629 131.671 25.3505C131.814 25.3354 131.814 25.3354 132.059 25.4219C132.12 25.4439 132.185 25.4412 132.263 25.4302C132.331 25.4206 132.401 25.4412 132.449 25.481C132.468 25.4975 132.462 25.5249 132.468 25.5483C132.253 25.5703 132.035 25.5854 131.825 25.6183C131.69 25.6389 131.629 25.5799 131.54 25.5483C131.509 25.5373 131.477 25.514 131.448 25.5167C131.235 25.5373 131.021 25.5606 130.807 25.5881C130.781 25.5909 130.748 25.6224 130.746 25.6417C130.742 25.6774 130.796 25.7117 130.875 25.7103C130.98 25.709 131.082 25.6856 131.176 25.7419C131.254 25.7914 131.352 25.8134 131.468 25.7914C131.538 25.779 131.612 25.779 131.681 25.768C131.867 25.7351 132.035 25.7419 132.174 25.8353C132.281 25.86 132.385 25.8367 132.488 25.8243C132.564 25.8147 132.638 25.8051 132.693 25.8312C132.808 25.8861 132.922 25.9411 133.081 25.904C133.253 25.9424 133.384 26.0235 133.528 26.0894C133.595 26.121 133.648 26.1388 133.726 26.1182C133.759 26.11 133.798 26.11 133.833 26.1059C133.905 26.099 133.981 26.0784 134.046 26.0866C134.112 26.0963 134.166 26.1361 134.225 26.1608C134.254 26.1732 134.286 26.1938 134.315 26.1924C134.424 26.1855 134.53 26.1718 134.637 26.1608C134.744 26.1512 134.851 26.1416 134.958 26.132C135.047 26.1677 135.138 26.2034 135.228 26.2391C135.372 26.224 135.516 26.2089 135.657 26.1951C135.816 26.1787 135.816 26.18 136.045 26.2652C136.148 26.3036 136.257 26.2789 136.355 26.2611C136.518 26.2322 136.627 26.2844 136.743 26.3394C136.767 26.3503 136.81 26.3572 136.839 26.3517C136.952 26.3325 137.05 26.3476 137.133 26.3984C137.192 26.4341 137.251 26.4506 137.323 26.4437C137.573 26.4176 137.824 26.3902 138.075 26.3668C138.105 26.3641 138.14 26.3764 138.168 26.3874C138.391 26.4712 138.393 26.4753 138.556 26.4533C138.702 26.4341 138.838 26.4259 138.953 26.5014C138.977 26.5179 139.014 26.5412 139.04 26.5399C139.219 26.5261 139.4 26.511 139.577 26.4877C139.657 26.4767 139.714 26.4808 139.777 26.5124C139.858 26.5522 139.93 26.6003 140.063 26.5825C140.431 26.5316 140.433 26.5399 140.869 26.6346C140.9 26.6415 140.941 26.6305 140.976 26.625C141.05 26.6113 141.104 26.6305 141.17 26.6621C141.316 26.7335 141.32 26.7294 141.46 26.7143C141.567 26.7019 141.678 26.6992 141.782 26.6786C141.944 26.6484 142.051 26.7019 142.17 26.7528C142.266 26.7926 142.377 26.7596 142.48 26.7473C142.591 26.7335 142.691 26.7376 142.774 26.7898C142.831 26.8255 142.892 26.8448 142.964 26.8379C143.214 26.8132 143.465 26.7857 143.716 26.761C143.746 26.7582 143.783 26.7692 143.812 26.7788C144.06 26.864 144.06 26.8681 144.307 26.8365C144.385 26.8269 144.45 26.8242 144.509 26.853C144.566 26.8805 144.627 26.9066 144.686 26.9327C144.793 26.923 144.902 26.9203 145.006 26.9038C145.087 26.8915 145.144 26.897 145.207 26.9258C145.29 26.9629 145.359 27.0274 145.49 26.9958C145.558 26.9807 145.636 26.9848 145.704 26.9711C145.784 26.9533 145.839 26.9642 145.902 27C145.981 27.0425 146.061 27.0865 146.188 27.0645C146.327 27.0398 146.475 27.0357 146.617 27.0164C146.696 27.0054 146.75 27.0164 146.813 27.0521C146.892 27.0975 146.981 27.1263 147.103 27.1085C147.352 27.0741 147.354 27.081 147.596 27.1675C147.657 27.1895 147.722 27.1867 147.801 27.1757C147.868 27.1661 147.938 27.1867 147.986 27.2266C148.032 27.2705 148.027 27.298 148.032 27.3213ZM128.608 14.9348C128.536 14.9416 128.464 14.9499 128.359 14.8304C128.353 14.8098 128.357 14.7851 128.342 14.7672C128.307 14.7301 128.253 14.704 128.187 14.6999C128.07 14.6944 127.928 14.7411 127.93 14.7768C127.932 14.807 127.969 14.8331 128.041 14.8578C128.072 14.8675 128.096 14.8839 128.124 14.8949C128.207 14.9265 128.272 14.9883 128.392 14.9567C128.37 14.8716 128.381 14.9142 128.392 14.9567C128.381 15.0089 128.414 15.046 128.492 15.0611C128.514 15.0652 128.547 15.0625 128.564 15.0542C128.632 15.024 128.643 14.9828 128.593 14.8743C128.584 14.8922 128.591 14.9238 128.61 14.932C128.63 14.9403 128.678 14.9334 128.702 14.9238C128.763 14.8977 128.793 14.8634 128.778 14.8345C128.769 14.8194 128.728 14.8002 128.702 14.8002C128.656 14.8002 128.614 14.8304 128.608 14.9348ZM146.233 30.8619C146.074 30.888 145.891 30.8784 145.732 30.932C145.704 30.9416 145.675 30.9663 145.673 30.9855C145.671 30.9979 145.715 31.0157 145.741 31.0254C145.8 31.0473 145.865 31.0405 145.941 31.0336C146.057 31.024 146.124 31.0871 146.214 31.1187C146.242 31.1283 146.279 31.1352 146.31 31.1325C146.486 31.116 146.661 31.0981 146.837 31.0789C146.868 31.0748 146.9 31.0652 146.927 31.0528C147.014 31.013 147.005 30.9869 146.92 30.9567C146.826 30.9237 146.752 30.8688 146.656 30.8427C146.519 30.8056 146.38 30.855 146.233 30.8619ZM133.855 31.8645C133.748 31.8755 133.643 31.8865 133.536 31.8974C133.501 31.9016 133.464 31.9029 133.432 31.9084C133.364 31.918 133.314 31.9469 133.281 31.9922C133.331 32.0279 133.393 32.0485 133.46 32.0444C133.567 32.0362 133.672 32.0183 133.778 32.0142C133.894 32.0087 133.961 32.0705 134.051 32.1021C134.079 32.1117 134.114 32.1131 134.147 32.1144C134.308 32.1199 134.406 32.0485 134.376 31.9483C134.354 31.87 134.271 31.8233 134.171 31.8329C134.066 31.8425 133.959 31.8535 133.855 31.8645ZM146.979 28.832C147.005 28.8087 147.033 28.7922 147.047 28.7716C147.086 28.7016 147.07 28.6494 146.999 28.5944C146.911 28.5272 146.805 28.5725 146.706 28.5793C146.683 28.5807 146.656 28.6096 146.643 28.6274C146.635 28.6398 146.635 28.6659 146.648 28.6727C146.754 28.7277 146.868 28.7785 146.979 28.832ZM128.07 24.7751C127.965 24.7861 127.858 24.7943 127.754 24.8094C127.727 24.8135 127.703 24.8396 127.688 24.8575C127.66 24.8904 127.69 24.9358 127.78 24.9399C127.882 24.9454 127.989 24.922 128.096 24.911C128.231 24.8973 128.311 24.8465 128.261 24.8025C128.213 24.76 128.148 24.7517 128.07 24.7751ZM13.3292 21.8401C13.399 21.8333 13.4709 21.8278 13.5406 21.8182C13.606 21.8086 13.6562 21.7783 13.6889 21.733C13.6344 21.6973 13.5733 21.6781 13.5058 21.6822C13.399 21.6904 13.2944 21.7014 13.1897 21.7152C13.1243 21.7234 13.0611 21.7536 13.0459 21.8003C13.0306 21.836 13.1766 21.8566 13.3292 21.8401ZM118.851 21.6286C118.88 21.641 118.908 21.6657 118.936 21.6657C119.006 21.6657 119.078 21.6575 119.143 21.6437C119.172 21.6383 119.194 21.6135 119.207 21.5943C119.215 21.5819 119.213 21.56 119.2 21.549C119.137 21.4831 118.884 21.5064 118.843 21.582C118.838 21.5957 118.849 21.6135 118.851 21.6286ZM111.974 14.108C111.981 14.13 111.983 14.1519 111.992 14.1739C112.009 14.2151 112.057 14.2453 112.127 14.2659C112.181 14.2316 112.21 14.1931 112.207 14.1519C112.205 14.13 112.199 14.108 112.19 14.086C112.173 14.0448 112.125 14.0146 112.055 13.994C112 14.027 111.974 14.0654 111.974 14.108ZM152.016 32.1035C151.997 32.1213 151.977 32.1392 151.955 32.1556C152.014 32.1955 152.069 32.2078 152.11 32.1859C152.136 32.1721 152.152 32.1515 152.171 32.1337C152.112 32.0938 152.06 32.0829 152.016 32.1035ZM150.661 32.2902C150.689 32.3026 150.715 32.3191 150.746 32.3273C150.796 32.3411 150.841 32.3177 150.876 32.2683C150.848 32.2559 150.822 32.2394 150.791 32.2312C150.741 32.2174 150.695 32.2408 150.661 32.2902ZM151.519 32.0389C151.504 32.0719 151.535 32.0993 151.615 32.1227C151.635 32.1048 151.661 32.0883 151.674 32.0691C151.696 32.0375 151.659 32.0087 151.58 31.9867C151.559 32.0032 151.539 32.0211 151.519 32.0389ZM146.918 30.5584C146.903 30.5914 146.933 30.6188 147.014 30.6422C147.033 30.6243 147.06 30.6078 147.073 30.5886C147.094 30.557 147.057 30.5282 146.979 30.5062C146.957 30.5227 146.938 30.5405 146.918 30.5584ZM140.649 20.8403C140.629 20.8582 140.61 20.876 140.588 20.8925C140.647 20.9323 140.701 20.9447 140.743 20.9227C140.769 20.909 140.784 20.8884 140.804 20.8705C140.745 20.8307 140.693 20.8197 140.649 20.8403ZM134.644 15.6846C134.696 15.6942 134.74 15.675 134.777 15.6242C134.748 15.6118 134.722 15.5954 134.692 15.5871C134.642 15.5734 134.596 15.5967 134.561 15.6462C134.589 15.6599 134.618 15.6723 134.644 15.6846ZM131.455 15.3619C131.435 15.3797 131.415 15.3976 131.394 15.4141C131.453 15.4539 131.507 15.4663 131.548 15.4443C131.575 15.4306 131.59 15.4099 131.609 15.3921C131.551 15.3523 131.498 15.3427 131.455 15.3619ZM109.829 14.1066C109.81 14.1245 109.79 14.1423 109.768 14.1588C109.827 14.1986 109.882 14.211 109.923 14.189C109.949 14.1753 109.964 14.1547 109.984 14.1368C109.925 14.097 109.873 14.0874 109.829 14.1066ZM2.15139 25.2805C2.12306 25.2681 2.09475 25.2558 2.06859 25.242C2.00538 25.2791 1.98576 25.3134 2.02064 25.3395C2.04244 25.356 2.07511 25.3656 2.10345 25.378C2.16884 25.3409 2.18409 25.3079 2.15139 25.2805Z" fill="#FFE492"/>
<path d="M27.7974 6.82853C27.5467 6.85463 27.2982 6.88758 27.0475 6.90406C26.9146 6.9123 26.8666 6.97136 26.8122 7.02629C26.7686 7.07024 26.7184 7.08397 26.6378 7.09221C25.9577 7.15951 25.2797 7.23093 24.6018 7.30097C24.5168 7.28312 24.4754 7.25428 24.495 7.21995C24.5059 7.19935 24.5321 7.1705 24.5583 7.16776C25.0225 7.11694 25.4846 7.06475 25.9511 7.02492C26.0841 7.01393 26.1211 6.9535 26.1887 6.90406C26.2105 6.88758 26.228 6.86286 26.2563 6.85325C26.2846 6.84226 26.3261 6.84364 26.3631 6.84089C27.1129 6.76261 27.8628 6.6857 28.6126 6.60742C28.6976 6.62528 28.7391 6.65411 28.7194 6.68845C28.7085 6.70905 28.6824 6.73789 28.6562 6.74064C28.3685 6.76948 28.0829 6.79832 27.7974 6.82853Z" fill="#FFE492"/>
<path d="M165.044 14.1418C164.93 14.1582 164.786 14.1816 164.669 14.1019C164.612 14.0635 164.551 14.0511 164.477 14.0594C164.37 14.0731 164.261 14.0841 164.152 14.0923C164.124 14.0937 164.087 14.0786 164.058 14.0662C163.997 14.0415 163.945 14.0003 163.88 13.9893C163.814 13.9783 163.736 14.0085 163.668 14.0017C163.579 13.9921 163.542 13.955 163.566 13.9206C163.579 13.9014 163.605 13.8739 163.633 13.8698C164.037 13.819 164.039 13.819 164.152 13.8685C164.239 13.9069 164.32 13.9495 164.444 13.9261C164.549 13.9069 164.66 13.9028 164.767 13.8904C164.915 13.8739 164.915 13.8753 165.155 13.9618C165.216 13.9838 165.281 13.9824 165.36 13.9701C165.427 13.9605 165.493 13.9824 165.547 14.0195C165.512 14.0662 165.462 14.0964 165.395 14.1047C165.286 14.1184 165.179 14.128 165.044 14.1418Z" fill="#FFE492"/>
<path d="M161.035 13.7188C161.31 13.69 161.587 13.6653 161.861 13.6323C161.975 13.6186 162.064 13.6337 162.142 13.6804C162.228 13.7312 162.323 13.7271 162.428 13.7175C162.493 13.712 162.557 13.7339 162.6 13.7724C162.618 13.7875 162.613 13.815 162.62 13.8369C162.38 13.8617 162.138 13.8877 161.896 13.9097C161.868 13.9125 161.833 13.8987 161.807 13.8878C161.748 13.8644 161.698 13.8232 161.635 13.815C161.499 13.7957 161.364 13.8328 161.227 13.8397C161.162 13.8424 161.098 13.8218 161.055 13.7848C161.037 13.7669 161.042 13.7408 161.035 13.7188Z" fill="#FFE492"/>
<path d="M61.7772 1.91079C62.0628 1.88058 62.3483 1.85175 62.6338 1.82153C62.7188 1.84076 62.7581 1.86822 62.7406 1.90256C62.7297 1.92316 62.7036 1.952 62.6774 1.95475C62.1063 2.01655 61.5353 2.0756 60.9663 2.13465C60.8813 2.11542 60.8421 2.08796 60.8595 2.05363C60.8704 2.03303 60.8966 2.00418 60.9228 2.00144C61.2061 1.96985 61.4917 1.941 61.7772 1.91079Z" fill="#FFE492"/>
<path d="M17.7719 9.54212C17.6433 9.54486 17.5082 9.59568 17.3643 9.55722C17.336 9.55036 17.2967 9.52838 17.2989 9.51601C17.3033 9.49541 17.3294 9.46932 17.3578 9.46108C17.482 9.42674 17.6368 9.42262 17.7 9.32649C17.7305 9.27704 17.7872 9.26057 17.8635 9.25096C17.9441 9.23997 18.0008 9.24408 18.064 9.27292C18.1468 9.31 18.2166 9.37867 18.3474 9.34297C18.3539 9.36494 18.3692 9.38966 18.3626 9.41026C18.3561 9.43086 18.3278 9.45009 18.3016 9.4652C18.2776 9.47893 18.2449 9.49129 18.2144 9.49541C18.0705 9.51189 17.9267 9.52564 17.7719 9.54212Z" fill="#FFE492"/>
<path d="M131.134 9.26606C131.241 9.25508 131.352 9.24958 131.457 9.23035C131.54 9.21525 131.592 9.22485 131.658 9.25782C131.769 9.3155 131.775 9.31001 132.048 9.31825C132.078 9.31963 132.115 9.34022 132.133 9.35807C132.144 9.36768 132.128 9.39379 132.115 9.40753C132.096 9.42538 132.067 9.44872 132.041 9.44872C131.869 9.45284 131.695 9.53388 131.527 9.44049C131.442 9.39379 131.348 9.3718 131.233 9.3924C131.163 9.40476 131.089 9.41026 131.017 9.41576C130.947 9.42125 130.875 9.40614 130.831 9.36494C130.768 9.30451 130.805 9.28117 130.919 9.28529C130.991 9.28804 131.063 9.27293 131.134 9.26606Z" fill="#FFE492"/>
<path d="M101.444 0.0398473C101.586 0.02474 101.728 0.00140388 101.869 3.04915e-05C101.952 -0.00134289 101.994 0.0439701 101.974 0.0769314C101.963 0.0975321 101.937 0.126374 101.911 0.129121C101.627 0.162082 101.344 0.189554 101.061 0.219769C100.978 0.200541 100.936 0.171705 100.956 0.138744C100.967 0.118143 100.993 0.0906746 101.019 0.0865545C101.161 0.0673271 101.303 0.0549545 101.444 0.0398473Z" fill="#FFE492"/>
<path d="M134.746 9.4519C134.816 9.44504 134.888 9.42718 134.956 9.43267C135.028 9.43954 135.073 9.47937 135.095 9.5192C135.119 9.56452 135.117 9.6071 135.095 9.64556C135.06 9.71148 135.025 9.70873 134.945 9.66479C134.821 9.59612 134.812 9.60435 134.566 9.6071C134.537 9.6071 134.502 9.58649 134.481 9.56864C134.448 9.54117 134.465 9.4986 134.542 9.47388C134.598 9.45603 134.677 9.45877 134.746 9.4519Z" fill="#FFE492"/>
<path d="M162.819 13.8116C162.922 13.8006 163.024 13.7828 163.127 13.7828C163.198 13.7814 163.255 13.813 163.262 13.8473C163.264 13.8638 163.231 13.8913 163.205 13.8995C163.081 13.9366 162.941 13.9393 162.806 13.9517C162.743 13.9572 162.673 13.9352 162.634 13.8967C162.575 13.8391 162.61 13.813 162.717 13.8212C162.749 13.8239 162.784 13.8157 162.819 13.8116Z" fill="#FFE492"/>
<path d="M146.696 12.1268C146.544 12.1433 146.4 12.1227 146.411 12.087C146.426 12.0403 146.489 12.0101 146.555 12.0019C146.659 11.9881 146.764 11.9771 146.871 11.9689C146.938 11.9634 146.999 11.984 147.054 12.0197C147.021 12.0637 146.971 12.0952 146.906 12.1049C146.838 12.1145 146.766 12.12 146.696 12.1268Z" fill="#FFE492"/>
<path d="M145.692 11.9517C145.795 11.9407 145.897 11.9229 146 11.9229C146.071 11.9215 146.128 11.9531 146.135 11.9874C146.137 12.0039 146.104 12.0314 146.078 12.0396C145.954 12.0767 145.814 12.0795 145.679 12.0918C145.616 12.0973 145.546 12.0753 145.507 12.0369C145.448 11.9792 145.483 11.9531 145.59 11.9614C145.622 11.9641 145.657 11.9559 145.692 11.9517Z" fill="#FFE492"/>
<path d="M133.507 9.44067C133.609 9.42968 133.712 9.41182 133.814 9.41044C133.886 9.40907 133.943 9.44067 133.949 9.47501C133.951 9.49149 133.919 9.51758 133.893 9.52719C133.768 9.56428 133.629 9.56702 133.494 9.57938C133.43 9.58488 133.361 9.5629 133.321 9.52445C133.263 9.46676 133.297 9.44066 133.404 9.4489C133.437 9.45165 133.472 9.44342 133.507 9.44067Z" fill="#FFE492"/>
<path d="M132.933 9.35941C133.042 9.34842 133.077 9.34155 133.112 9.34155C133.177 9.34155 133.245 9.35804 133.284 9.39787C133.343 9.45555 133.308 9.47204 133.201 9.47478C133.064 9.47753 132.929 9.50637 132.791 9.51187C132.719 9.51461 132.663 9.48164 132.658 9.44731C132.656 9.43083 132.689 9.40199 132.715 9.39649C132.807 9.37589 132.907 9.36353 132.933 9.35941Z" fill="#FFE492"/>
<path d="M144.81 1.27977C144.74 1.28664 144.666 1.30587 144.601 1.299C144.514 1.28938 144.479 1.25231 144.5 1.21797C144.514 1.19875 144.538 1.17128 144.564 1.16716C144.703 1.14793 144.845 1.13556 144.984 1.12183C145.067 1.14243 145.104 1.17127 145.082 1.2056C145.069 1.22483 145.045 1.25092 145.019 1.25642C144.952 1.27015 144.88 1.2729 144.81 1.27977Z" fill="#FFE492"/>
<path d="M60.2155 2.0721C60.2831 2.07072 60.3441 2.08858 60.3964 2.12291C60.3637 2.16686 60.3158 2.1957 60.2504 2.20806C60.2177 2.21355 60.1807 2.21767 60.1458 2.21904C60.0782 2.22179 60.0172 2.20256 59.9648 2.16823C59.9975 2.12428 60.0477 2.09544 60.1109 2.08308C60.1436 2.07758 60.1807 2.07622 60.2155 2.0721Z" fill="#FFE492"/>
<path d="M135.37 9.61804C135.368 9.60293 135.357 9.58508 135.363 9.57135C135.405 9.49581 135.656 9.47247 135.721 9.53839C135.732 9.55075 135.736 9.57134 135.727 9.5837C135.714 9.60293 135.69 9.62765 135.664 9.63314C135.597 9.64688 135.527 9.65375 135.457 9.65512C135.427 9.65512 135.398 9.63177 135.37 9.61804Z" fill="#FFE492"/>
<path d="M18.5486 9.32257C18.2914 9.35141 18.287 9.34865 18.3328 9.27999C18.3742 9.21818 18.4505 9.18111 18.5617 9.18111C18.5944 9.18111 18.6292 9.17836 18.6576 9.18385C18.6881 9.19072 18.7317 9.20444 18.7382 9.22092C18.7513 9.25251 18.7142 9.28685 18.6488 9.3102C18.6205 9.32118 18.5834 9.31845 18.5486 9.32257Z" fill="#FFE492"/>
<path d="M63.4286 1.87902C63.3523 1.90237 63.287 1.89413 63.239 1.85019C63.1911 1.80624 63.2674 1.75404 63.4003 1.74168C63.4352 1.73894 63.4722 1.72796 63.5049 1.73345C63.5376 1.73757 63.5704 1.75404 63.59 1.77052C63.6249 1.79799 63.6031 1.83508 63.5333 1.86667C63.505 1.87903 63.4635 1.87627 63.4286 1.87902Z" fill="#FFE492"/>
<path d="M22.0098 24.957C22.0098 24.9405 22.0399 24.9144 22.0635 24.9089C22.1087 24.8993 22.1645 24.9186 22.2032 24.957C22.257 25.0119 22.2248 25.0408 22.1259 25.0257C22.0571 25.0147 22.0098 24.9872 22.0098 24.957Z" fill="#FFE492"/>
<path d="M136.258 8.33955C136.286 8.35191 136.314 8.36427 136.34 8.37801C136.303 8.42882 136.258 8.45079 136.211 8.43705C136.181 8.42881 136.155 8.41233 136.127 8.39997C136.164 8.34916 136.207 8.32994 136.258 8.33955Z" fill="#FFE492"/>
<path d="M135.499 8.2775C135.542 8.2569 135.594 8.2679 135.654 8.30773C135.635 8.32559 135.618 8.34619 135.594 8.35992C135.553 8.3819 135.499 8.3709 135.441 8.32969C135.459 8.31321 135.478 8.29536 135.499 8.2775Z" fill="#FFE492"/>
<path d="M134.926 8.33759C134.954 8.34995 134.982 8.36232 135.008 8.37605C134.971 8.42686 134.928 8.44883 134.879 8.4351C134.849 8.42686 134.823 8.41037 134.795 8.39801C134.831 8.3472 134.874 8.3266 134.926 8.33759Z" fill="#FFE492"/>
<path d="M134.506 8.26502C134.538 8.29249 134.521 8.32544 134.458 8.36253C134.43 8.35017 134.398 8.34056 134.377 8.32408C134.342 8.29799 134.36 8.26364 134.424 8.22656C134.45 8.2403 134.478 8.25266 134.506 8.26502Z" fill="#FFE492"/>
</svg>
